CSLSans-SemiBoldItalic.ufo
<glyph name="quotedbl" format="2">
  <advance width="458"/>
  <unicode hex="0022"/>
  <outline>
    <contour>
      <point x="420" y="431" type="line"/>
      <point x="312" y="431" type="line"/>
      <point x="373" y="740" type="line"/>
      <point x="482" y="740" type="line"/>
    </contour>
    <contour>
      <point x="214" y="431" type="line"/>
      <point x="105" y="431" type="line"/>
      <point x="167" y="740" type="line"/>
      <point x="276" y="740" type="line"/>
    </contour>
  </outline>
</glyph>
<glyph name="asterisk" format="2">
  <advance width="540"/>
  <unicode hex="002A"/>
  <outline>
    <contour>
      <point x="181" y="293" type="line"/>
      <point x="104" y="360" type="line"/>
      <point x="240" y="494" type="line"/>
      <point x="92" y="541" type="line"/>
      <point x="135" y="638" type="line"/>
      <point x="281" y="573" type="line"/>
      <point x="309" y="747" type="line"/>
      <point x="415" y="747" type="line"/>
      <point x="375" y="575" type="line"/>
      <point x="532" y="635" type="line"/>
      <point x="556" y="541" type="line"/>
      <point x="385" y="489" type="line"/>
      <point x="465" y="350" type="line"/>
      <point x="377" y="295" type="line"/>
      <point x="307" y="442" type="line"/>
    </contour>
  </outline>
</glyph>
<glyph name="comma" format="2">
  <advance width="300"/>
  <unicode hex="002C"/>
  <outline>
    <contour>
      <point x="42" y="-141" type="qcurve"/>
      <point x="-49" y="-141" type="line"/>
      <point x="30" y="-78"/>
      <point x="66" y="-7" type="qcurve"/>
      <point x="22" y="3"/>
      <point x="22" y="42" type="qcurve" smooth="yes"/>
      <point x="22" y="88"/>
      <point x="63" y="149"/>
      <point x="111" y="149" type="qcurve" smooth="yes"/>
      <point x="147" y="149"/>
      <point x="178" y="115"/>
      <point x="178" y="93" type="qcurve" smooth="yes"/>
      <point x="178" y="42"/>
      <point x="105" y="-93"/>
    </contour>
  </outline>
</glyph>
<glyph name="period" format="2">
  <advance width="300"/>
  <unicode hex="002E"/>
  <outline>
    <contour>
      <point x="86" y="-12" type="qcurve" smooth="yes"/>
      <point x="49" y="-12"/>
      <point x="19" y="20"/>
      <point x="19" y="41" type="qcurve" smooth="yes"/>
      <point x="19" y="149"/>
      <point x="110" y="149" type="qcurve" smooth="yes"/>
      <point x="146" y="149"/>
      <point x="177" y="116"/>
      <point x="177" y="96" type="qcurve" smooth="yes"/>
      <point x="177" y="84"/>
      <point x="175" y="73"/>
      <point x="173" y="63"/>
      <point x="171" y="55" type="qcurve"/>
      <point x="159" y="-12"/>
    </contour>
  </outline>
</glyph>
<glyph name="three" format="2">
  <advance width="600"/>
  <unicode hex="0033"/>
  <outline>
    <contour>
      <point x="245" y="-12" type="qcurve" smooth="yes"/>
      <point x="154" y="-12"/>
      <point x="44" y="63"/>
      <point x="24" y="117" type="qcurve"/>
      <point x="115" y="181" type="line"/>
      <point x="144" y="89"/>
      <point x="253" y="89" type="qcurve" smooth="yes"/>
      <point x="313" y="89"/>
      <point x="388" y="155"/>
      <point x="388" y="224" type="qcurve" smooth="yes"/>
      <point x="388" y="267"/>
      <point x="332" y="311"/>
      <point x="283" y="311" type="qcurve" smooth="yes"/>
      <point x="210" y="311" type="line"/>
      <point x="231" y="414" type="line"/>
      <point x="298" y="414" type="line" smooth="yes"/>
      <point x="368" y="414"/>
      <point x="421" y="469"/>
      <point x="430" y="522" type="qcurve"/>
      <point x="430" y="547"/>
      <point x="419" y="578"/>
      <point x="403" y="590" type="qcurve" smooth="yes"/>
      <point x="379" y="608"/>
      <point x="339" y="608" type="qcurve" smooth="yes"/>
      <point x="247" y="608"/>
      <point x="194" y="524" type="qcurve"/>
      <point x="123" y="599" type="line"/>
      <point x="163" y="650"/>
      <point x="272" y="710"/>
      <point x="358" y="710" type="qcurve" smooth="yes"/>
      <point x="447" y="710"/>
      <point x="560" y="621"/>
      <point x="560" y="549" type="qcurve" smooth="yes"/>
      <point x="560" y="474"/>
      <point x="469" y="382"/>
      <point x="399" y="368" type="qcurve"/>
      <point x="398" y="363" type="line"/>
      <point x="454" y="351"/>
      <point x="511" y="275"/>
      <point x="511" y="217" type="qcurve" smooth="yes"/>
      <point x="511" y="115"/>
      <point x="365" y="-12"/>
    </contour>
  </outline>
</glyph>
<glyph name="seven" format="2">
  <advance width="600"/>
  <unicode hex="0037"/>
  <outline>
    <contour>
      <point x="246" y="0" type="line"/>
      <point x="118" y="0" type="line"/>
      <point x="476" y="597" type="line"/>
      <point x="131" y="597" type="line"/>
      <point x="151" y="698" type="line"/>
      <point x="617" y="698" type="line"/>
      <point x="596" y="590" type="line"/>
    </contour>
  </outline>
</glyph>
<glyph name="colon" format="2">
  <advance width="300"/>
  <unicode hex="003A"/>
  <outline>
    <contour>
      <point x="96" y="-12" type="qcurve" smooth="yes"/>
      <point x="59" y="-12"/>
      <point x="29" y="20"/>
      <point x="29" y="41" type="qcurve" smooth="yes"/>
      <point x="29" y="149"/>
      <point x="120" y="149" type="qcurve" smooth="yes"/>
      <point x="156" y="149"/>
      <point x="187" y="116"/>
      <point x="187" y="96" type="qcurve" smooth="yes"/>
      <point x="187" y="84"/>
      <point x="185" y="73"/>
      <point x="183" y="63"/>
      <point x="181" y="55" type="qcurve"/>
      <point x="169" y="-12"/>
    </contour>
    <contour>
      <point x="172" y="371" type="qcurve" smooth="yes"/>
      <point x="136" y="371"/>
      <point x="106" y="403"/>
      <point x="106" y="424" type="qcurve" smooth="yes"/>
      <point x="106" y="532"/>
      <point x="196" y="532" type="qcurve" smooth="yes"/>
      <point x="233" y="532"/>
      <point x="263" y="500"/>
      <point x="263" y="479" type="qcurve" smooth="yes"/>
      <point x="263" y="371"/>
    </contour>
  </outline>
</glyph>
<glyph name="semicolon" format="2">
  <advance width="300"/>
  <unicode hex="003B"/>
  <outline>
    <contour>
      <point x="52" y="-141" type="qcurve"/>
      <point x="-39" y="-141" type="line"/>
      <point x="40" y="-78"/>
      <point x="76" y="-7" type="qcurve"/>
      <point x="32" y="3"/>
      <point x="32" y="42" type="qcurve" smooth="yes"/>
      <point x="32" y="88"/>
      <point x="73" y="149"/>
      <point x="121" y="149" type="qcurve" smooth="yes"/>
      <point x="157" y="149"/>
      <point x="188" y="115"/>
      <point x="188" y="93" type="qcurve" smooth="yes"/>
      <point x="188" y="42"/>
      <point x="115" y="-93"/>
    </contour>
    <contour>
      <point x="172" y="371" type="qcurve" smooth="yes"/>
      <point x="136" y="371"/>
      <point x="106" y="403"/>
      <point x="106" y="424" type="qcurve" smooth="yes"/>
      <point x="106" y="532"/>
      <point x="196" y="532" type="qcurve" smooth="yes"/>
      <point x="233" y="532"/>
      <point x="263" y="500"/>
      <point x="263" y="479" type="qcurve" smooth="yes"/>
      <point x="263" y="371"/>
    </contour>
  </outline>
</glyph>
<glyph name="backslash" format="2">
  <advance width="440"/>
  <unicode hex="005C"/>
  <outline>
    <contour>
      <point x="341" y="-151" type="line"/>
      <point x="245" y="-151" type="line"/>
      <point x="146" y="740" type="line"/>
      <point x="242" y="740" type="line"/>
    </contour>
  </outline>
</glyph>
<glyph name="grave" format="2">
  <advance width="588"/>
  <unicode hex="0060"/>
  <outline>
    <contour>
      <point x="283" y="581" type="line"/>
      <point x="186" y="752" type="line"/>
      <point x="290" y="801" type="line"/>
      <point x="355" y="614" type="line"/>
    </contour>
  </outline>
</glyph>
<glyph name="p" format="2">
  <advance width="579"/>
  <unicode hex="0070"/>
  <outline>
    <contour>
      <point x="269" y="86" type="qcurve" smooth="yes"/>
      <point x="377" y="86"/>
      <point x="402" y="218" type="qcurve"/>
      <point x="406" y="245"/>
      <point x="411" y="268" type="qcurve"/>
      <point x="422" y="303"/>
      <point x="422" y="345" type="qcurve"/>
      <point x="421" y="385"/>
      <point x="384" y="436"/>
      <point x="343" y="436" type="qcurve" smooth="yes"/>
      <point x="289" y="436"/>
      <point x="209" y="340"/>
      <point x="194" y="275" type="qcurve"/>
      <point x="174" y="174" type="line"/>
      <point x="174" y="151"/>
      <point x="184" y="119"/>
      <point x="199" y="107" type="qcurve" smooth="yes"/>
      <point x="224" y="86"/>
    </contour>
    <contour>
      <point x="99" y="-200" type="line"/>
      <point x="-17" y="-200" type="line"/>
      <point x="127" y="522" type="line"/>
      <point x="243" y="522" type="line"/>
      <point x="220" y="404" type="line"/>
      <point x="224" y="404" type="line"/>
      <point x="254" y="468"/>
      <point x="334" y="534"/>
      <point x="394" y="534" type="qcurve" smooth="yes"/>
      <point x="468" y="534"/>
      <point x="541" y="428"/>
      <point x="541" y="346" type="qcurve" smooth="yes"/>
      <point x="541" y="249"/>
      <point x="477" y="86"/>
      <point x="365" y="-12"/>
      <point x="293" y="-12" type="qcurve" smooth="yes"/>
      <point x="242" y="-12"/>
      <point x="170" y="39"/>
      <point x="161" y="88" type="qcurve"/>
      <point x="156" y="88" type="line"/>
    </contour>
  </outline>
</glyph>
<glyph name="r" format="2">
  <advance width="383"/>
  <unicode hex="0072"/>
  <outline>
    <contour>
      <point x="139" y="0" type="line"/>
      <point x="23" y="0" type="line"/>
      <point x="127" y="522" type="line"/>
      <point x="243" y="522" type="line"/>
      <point x="220" y="404" type="line"/>
      <point x="226" y="404" type="line"/>
      <point x="245" y="452"/>
      <point x="329" y="522"/>
      <point x="381" y="522" type="qcurve" smooth="yes"/>
      <point x="409" y="522" type="line"/>
      <point x="385" y="408" type="line"/>
      <point x="350" y="408" type="line" smooth="yes"/>
      <point x="281" y="408"/>
      <point x="207" y="349"/>
      <point x="196" y="288" type="qcurve" smooth="yes"/>
    </contour>
  </outline>
</glyph>
<glyph name="t" format="2">
  <advance width="340"/>
  <unicode hex="0074"/>
  <outline>
    <contour>
      <point x="257" y="0" type="line"/>
      <point x="166" y="0" type="line" smooth="yes"/>
      <point x="70" y="0"/>
      <point x="64" y="76" type="qcurve" smooth="yes"/>
      <point x="63" y="86" type="line"/>
      <point x="65" y="115"/>
      <point x="67" y="125" type="qcurve" smooth="yes"/>
      <point x="128" y="426" type="line"/>
      <point x="52" y="426" type="line"/>
      <point x="70" y="522" type="line"/>
      <point x="108" y="522" type="line" smooth="yes"/>
      <point x="138" y="522"/>
      <point x="160" y="546"/>
      <point x="164" y="573" type="qcurve"/>
      <point x="182" y="664" type="line"/>
      <point x="290" y="664" type="line"/>
      <point x="262" y="522" type="line"/>
      <point x="367" y="522" type="line"/>
      <point x="348" y="426" type="line"/>
      <point x="243" y="426" type="line"/>
      <point x="177" y="95" type="line"/>
      <point x="276" y="95" type="line"/>
    </contour>
  </outline>
</glyph>
<glyph name="braceleft" format="2">
  <advance width="349"/>
  <unicode hex="007B"/>
  <outline>
    <contour>
      <point x="225" y="-138" type="line"/>
      <point x="129" y="-138" type="line"/>
      <point x="60" y="-135"/>
      <point x="55" y="-76" type="qcurve" smooth="yes"/>
      <point x="54" y="-60" type="line"/>
      <point x="54" y="-52"/>
      <point x="56" y="-42" type="qcurve" smooth="yes"/>
      <point x="99" y="172"/>
      <point x="99" y="182" type="qcurve" smooth="yes"/>
      <point x="99" y="262"/>
      <point x="24" y="262" type="qcurve"/>
      <point x="45" y="362" type="line"/>
      <point x="140" y="362"/>
      <point x="155" y="450" type="qcurve"/>
      <point x="198" y="667" type="line" smooth="yes"/>
      <point x="217" y="760"/>
      <point x="307" y="760" type="qcurve" smooth="yes"/>
      <point x="405" y="760" type="line"/>
      <point x="388" y="671" type="line"/>
      <point x="305" y="671" type="line"/>
      <point x="259" y="440" type="line" smooth="yes"/>
      <point x="250" y="393"/>
      <point x="195" y="322"/>
      <point x="135" y="315" type="qcurve"/>
      <point x="134" y="307" type="line"/>
      <point x="170" y="299"/>
      <point x="212" y="252"/>
      <point x="212" y="213" type="qcurve" smooth="yes"/>
      <point x="212" y="210"/>
      <point x="161" y="-49" type="qcurve"/>
      <point x="244" y="-49" type="line"/>
    </contour>
  </outline>
</glyph>
<glyph name="cent" format="2">
  <advance width="522"/>
  <unicode hex="00A2"/>
  <outline>
    <contour>
      <point x="205" y="90" type="qcurve"/>
      <point x="273" y="428" type="line"/>
      <point x="192" y="403"/>
      <point x="172" y="306" type="qcurve" smooth="yes"/>
      <point x="165" y="273" type="line"/>
      <point x="151" y="225"/>
      <point x="151" y="184" type="qcurve" smooth="yes"/>
      <point x="151" y="114"/>
    </contour>
    <contour>
      <point x="252" y="-114" type="line"/>
      <point x="158" y="-114" type="line"/>
      <point x="180" y="-4" type="line"/>
      <point x="39" y="38"/>
      <point x="39" y="213" type="qcurve" smooth="yes"/>
      <point x="39" y="329"/>
      <point x="166" y="505"/>
      <point x="286" y="526" type="qcurve"/>
      <point x="307" y="630" type="line"/>
      <point x="401" y="630" type="line"/>
      <point x="379" y="522" type="line"/>
      <point x="479" y="493"/>
      <point x="507" y="402" type="qcurve"/>
      <point x="414" y="358" type="line"/>
      <point x="401" y="410"/>
      <point x="353" y="429" type="qcurve"/>
      <point x="285" y="85" type="line"/>
      <point x="344" y="99"/>
      <point x="384" y="167" type="qcurve"/>
      <point x="465" y="119" type="line"/>
      <point x="403" y="8"/>
      <point x="273" y="-9" type="qcurve"/>
    </contour>
  </outline>
</glyph>
<glyph name="brokenbar" format="2">
  <advance width="361"/>
  <unicode hex="00A6"/>
  <outline>
    <contour>
      <point x="153" y="-138" type="line"/>
      <point x="49" y="-138" type="line"/>
      <point x="121" y="219" type="line"/>
      <point x="224" y="219" type="line"/>
    </contour>
    <contour>
      <point x="261" y="403" type="line"/>
      <point x="157" y="403" type="line"/>
      <point x="229" y="760" type="line"/>
      <point x="332" y="760" type="line"/>
    </contour>
  </outline>
</glyph>
<glyph name="onequarter" format="2">
  <advance width="827"/>
  <unicode hex="00BC"/>
  <outline>
    <contour>
      <point x="612" y="133" type="line"/>
      <point x="641" y="274" type="line"/>
      <point x="635" y="274" type="line"/>
      <point x="509" y="133" type="line"/>
    </contour>
    <contour>
      <point x="665" y="0" type="line"/>
      <point x="586" y="0" type="line"/>
      <point x="600" y="71" type="line"/>
      <point x="425" y="71" type="line"/>
      <point x="440" y="142" type="line"/>
      <point x="642" y="369" type="line"/>
      <point x="739" y="369" type="line"/>
      <point x="692" y="133" type="line"/>
      <point x="739" y="133" type="line"/>
      <point x="726" y="71" type="line"/>
      <point x="679" y="71" type="line"/>
    </contour>
    <contour>
      <point x="142" y="0" type="line"/>
      <point x="43" y="0" type="line"/>
      <point x="682" y="698" type="line"/>
      <point x="780" y="698" type="line"/>
    </contour>
    <contour>
      <point x="238" y="329" type="line"/>
      <point x="157" y="329" type="line"/>
      <point x="215" y="621" type="line"/>
      <point x="126" y="576" type="line"/>
      <point x="142" y="657" type="line"/>
      <point x="226" y="698" type="line"/>
      <point x="312" y="698" type="line"/>
    </contour>
  </outline>
</glyph>
<glyph name="Ccedilla" format="2">
  <advance width="622"/>
  <unicode hex="00C7"/>
  <outline>
    <contour>
      <point x="268" y="-210" type="qcurve" smooth="yes"/>
      <point x="228" y="-210"/>
      <point x="172" y="-185"/>
      <point x="161" y="-167" type="qcurve"/>
      <point x="208" y="-120" type="line"/>
      <point x="213" y="-128"/>
      <point x="240" y="-143"/>
      <point x="253" y="-145" type="qcurve"/>
      <point x="261" y="-146" type="line"/>
      <point x="315" y="-145"/>
      <point x="315" y="-114" type="qcurve" smooth="yes"/>
      <point x="315" y="-82"/>
      <point x="253" y="-76" type="qcurve" smooth="yes"/>
      <point x="230" y="-74" type="line"/>
      <point x="255" y="-9" type="line"/>
      <point x="165" y="5"/>
      <point x="56" y="146"/>
      <point x="56" y="270" type="qcurve" smooth="yes"/>
      <point x="56" y="356"/>
      <point x="105" y="515"/>
      <point x="198" y="637"/>
      <point x="326" y="710"/>
      <point x="407" y="710" type="qcurve" smooth="yes"/>
      <point x="586" y="710"/>
      <point x="637" y="544" type="qcurve"/>
      <point x="529" y="498" type="line"/>
      <point x="515" y="546"/>
      <point x="455" y="602"/>
      <point x="396" y="602" type="qcurve" smooth="yes"/>
      <point x="322" y="602"/>
      <point x="220" y="495"/>
      <point x="204" y="407" type="qcurve"/>
      <point x="183" y="302" type="line" smooth="yes"/>
      <point x="177" y="270"/>
      <point x="177" y="246" type="qcurve" smooth="yes"/>
      <point x="178" y="174"/>
      <point x="245" y="96"/>
      <point x="311" y="96" type="qcurve" smooth="yes"/>
      <point x="374" y="96"/>
      <point x="450" y="156"/>
      <point x="478" y="210" type="qcurve"/>
      <point x="578" y="163" type="line"/>
      <point x="488" y="-9"/>
      <point x="314" y="-12" type="qcurve"/>
      <point x="297" y="-58" type="line"/>
      <point x="299" y="-61" type="line"/>
      <point x="319" y="-55"/>
      <point x="338" y="-55" type="qcurve" smooth="yes"/>
      <point x="362" y="-55"/>
      <point x="398" y="-82"/>
      <point x="398" y="-111" type="qcurve" smooth="yes"/>
      <point x="398" y="-160"/>
      <point x="322" y="-210"/>
    </contour>
  </outline>
</glyph>
<glyph name="Edieresis" format="2">
  <advance width="573"/>
  <unicode hex="00CB"/>
  <outline>
    <contour>
      <point x="476" y="0" type="line"/>
      <point x="29" y="0" type="line"/>
      <point x="169" y="698" type="line"/>
      <point x="603" y="698" type="line"/>
      <point x="581" y="591" type="line"/>
      <point x="268" y="591" type="line"/>
      <point x="231" y="406" type="line"/>
      <point x="510" y="406" type="line"/>
      <point x="488" y="299" type="line"/>
      <point x="210" y="299" type="line"/>
      <point x="171" y="107" type="line"/>
      <point x="497" y="107" type="line"/>
    </contour>
    <contour>
      <point x="301" y="771" type="qcurve" smooth="yes"/>
      <point x="245" y="771"/>
      <point x="245" y="814" type="qcurve" smooth="yes"/>
      <point x="245" y="850"/>
      <point x="280" y="905"/>
      <point x="325" y="905" type="qcurve" smooth="yes"/>
      <point x="380" y="905"/>
      <point x="380" y="863" type="qcurve" smooth="yes"/>
      <point x="380" y="825"/>
      <point x="345" y="771"/>
    </contour>
    <contour>
      <point x="493" y="771" type="qcurve" smooth="yes"/>
      <point x="438" y="771"/>
      <point x="438" y="814" type="qcurve" smooth="yes"/>
      <point x="438" y="850"/>
      <point x="473" y="905"/>
      <point x="518" y="905" type="qcurve" smooth="yes"/>
      <point x="572" y="905"/>
      <point x="572" y="862" type="qcurve" smooth="yes"/>
      <point x="572" y="771"/>
    </contour>
  </outline>
</glyph>
<glyph name="Ntilde" format="2">
  <advance width="694"/>
  <unicode hex="00D1"/>
  <outline>
    <contour>
      <point x="560" y="0" type="line"/>
      <point x="428" y="0" type="line"/>
      <point x="299" y="369" type="line"/>
      <point x="253" y="518" type="line"/>
      <point x="247" y="518" type="line"/>
      <point x="143" y="0" type="line"/>
      <point x="29" y="0" type="line"/>
      <point x="169" y="698" type="line"/>
      <point x="301" y="698" type="line"/>
      <point x="429" y="329" type="line"/>
      <point x="476" y="180" type="line"/>
      <point x="482" y="180" type="line"/>
      <point x="586" y="698" type="line"/>
      <point x="700" y="698" type="line"/>
    </contour>
    <contour>
      <point x="527" y="770" type="qcurve" smooth="yes"/>
      <point x="491" y="770"/>
      <point x="432" y="802" type="qcurve"/>
      <point x="406" y="815"/>
      <point x="381" y="815" type="qcurve" smooth="yes"/>
      <point x="365" y="815"/>
      <point x="339" y="802"/>
      <point x="323" y="790" type="qcurve"/>
      <point x="286" y="847" type="line"/>
      <point x="330" y="906"/>
      <point x="395" y="906" type="qcurve" smooth="yes"/>
      <point x="421" y="906"/>
      <point x="470" y="885"/>
      <point x="489" y="874" type="qcurve"/>
      <point x="517" y="860"/>
      <point x="540" y="860" type="qcurve" smooth="yes"/>
      <point x="557" y="860"/>
      <point x="581" y="872"/>
      <point x="599" y="886" type="qcurve"/>
      <point x="636" y="829" type="line"/>
      <point x="590" y="770"/>
    </contour>
  </outline>
</glyph>
<glyph name="igrave" format="2">
  <advance width="274"/>
  <unicode hex="00EC"/>
  <outline>
    <contour>
      <point x="203" y="0" type="line"/>
      <point x="121" y="0" type="line" smooth="yes"/>
      <point x="79" y="0"/>
      <point x="39" y="41"/>
      <point x="39" y="74" type="qcurve" smooth="yes"/>
      <point x="39" y="80"/>
      <point x="127" y="522" type="qcurve"/>
      <point x="243" y="522" type="line"/>
      <point x="157" y="95" type="line"/>
      <point x="222" y="95" type="line"/>
    </contour>
    <contour>
      <point x="179" y="581" type="line"/>
      <point x="82" y="752" type="line"/>
      <point x="186" y="801" type="line"/>
      <point x="251" y="614" type="line"/>
    </contour>
  </outline>
</glyph>
<glyph name="otilde" format="2">
  <advance width="546"/>
  <unicode hex="00F5"/>
  <outline>
    <contour>
      <point x="246" y="84" type="qcurve" smooth="yes"/>
      <point x="344" y="84"/>
      <point x="373" y="225" type="qcurve" smooth="yes"/>
      <point x="389" y="301" type="line"/>
      <point x="393" y="313"/>
      <point x="393" y="340" type="qcurve"/>
      <point x="392" y="384"/>
      <point x="347" y="437"/>
      <point x="300" y="437" type="qcurve" smooth="yes"/>
      <point x="203" y="437"/>
      <point x="173" y="297" type="qcurve" smooth="yes"/>
      <point x="157" y="220" type="line"/>
      <point x="153" y="204"/>
      <point x="153" y="182" type="qcurve" smooth="yes"/>
      <point x="153" y="138"/>
      <point x="196" y="84"/>
    </contour>
    <contour>
      <point x="239" y="-12" type="qcurve" smooth="yes"/>
      <point x="151" y="-12"/>
      <point x="38" y="94"/>
      <point x="38" y="204" type="qcurve" smooth="yes"/>
      <point x="38" y="288"/>
      <point x="102" y="439"/>
      <point x="222" y="534"/>
      <point x="307" y="534" type="qcurve" smooth="yes"/>
      <point x="394" y="534"/>
      <point x="508" y="427"/>
      <point x="508" y="317" type="qcurve" smooth="yes"/>
      <point x="508" y="178"/>
      <point x="353" y="-12"/>
    </contour>
    <contour>
      <point x="410" y="605" type="qcurve" smooth="yes"/>
      <point x="387" y="605"/>
      <point x="354" y="617"/>
      <point x="337" y="627" type="qcurve"/>
      <point x="326" y="632" type="line"/>
      <point x="290" y="651"/>
      <point x="266" y="651" type="qcurve" smooth="yes"/>
      <point x="249" y="651"/>
      <point x="225" y="638"/>
      <point x="207" y="625" type="qcurve"/>
      <point x="169" y="682" type="line"/>
      <point x="215" y="741"/>
      <point x="278" y="741" type="qcurve" smooth="yes"/>
      <point x="314" y="741"/>
      <point x="370" y="711" type="qcurve" smooth="yes"/>
      <point x="399" y="696"/>
      <point x="423" y="696" type="qcurve" smooth="yes"/>
      <point x="440" y="696"/>
      <point x="464" y="707"/>
      <point x="482" y="721" type="qcurve"/>
      <point x="519" y="664" type="line"/>
      <point x="472" y="605"/>
    </contour>
  </outline>
</glyph>
<glyph name="abreve" format="2">
  <advance width="588"/>
  <unicode hex="0103"/>
  <outline>
    <contour>
      <point x="235" y="86" type="qcurve" smooth="yes"/>
      <point x="286" y="86"/>
      <point x="370" y="178"/>
      <point x="385" y="247" type="qcurve"/>
      <point x="396" y="304" type="line" smooth="yes"/>
      <point x="406" y="352"/>
      <point x="406" y="359" type="qcurve" smooth="yes"/>
      <point x="406" y="390"/>
      <point x="356" y="436"/>
      <point x="310" y="436" type="qcurve" smooth="yes"/>
      <point x="204" y="436"/>
      <point x="177" y="304" type="qcurve" smooth="yes"/>
      <point x="170" y="270" type="line"/>
      <point x="157" y="216"/>
      <point x="157" y="177" type="qcurve"/>
      <point x="159" y="86"/>
    </contour>
    <contour>
      <point x="185" y="-12" type="qcurve" smooth="yes"/>
      <point x="149" y="-12"/>
      <point x="94" y="16"/>
      <point x="57" y="65"/>
      <point x="38" y="134"/>
      <point x="38" y="176" type="qcurve" smooth="yes"/>
      <point x="38" y="244"/>
      <point x="72" y="373"/>
      <point x="135" y="472"/>
      <point x="228" y="534"/>
      <point x="286" y="534" type="qcurve" smooth="yes"/>
      <point x="337" y="534"/>
      <point x="410" y="478"/>
      <point x="418" y="433" type="qcurve"/>
      <point x="423" y="433" type="line"/>
      <point x="440" y="522" type="line"/>
      <point x="556" y="522" type="line"/>
      <point x="471" y="95" type="line"/>
      <point x="535" y="95" type="line"/>
      <point x="516" y="0" type="line"/>
      <point x="433" y="0" type="line"/>
      <point x="360" y="2"/>
      <point x="354" y="62" type="qcurve"/>
      <point x="353" y="76" type="line"/>
      <point x="356" y="105"/>
      <point x="359" y="118" type="qcurve"/>
      <point x="355" y="118" type="line"/>
      <point x="324" y="54"/>
      <point x="247" y="-12"/>
    </contour>
    <contour>
      <point x="346" y="586" type="qcurve" smooth="yes"/>
      <point x="297" y="586"/>
      <point x="232" y="633"/>
      <point x="196" y="704"/>
      <point x="191" y="742" type="qcurve"/>
      <point x="258" y="776" type="line"/>
      <point x="270" y="748" type="line" smooth="yes"/>
      <point x="287" y="710"/>
      <point x="320" y="672"/>
      <point x="352" y="672" type="qcurve" smooth="yes"/>
      <point x="383" y="672"/>
      <point x="429" y="716"/>
      <point x="463" y="762" type="qcurve"/>
      <point x="474" y="776" type="line"/>
      <point x="544" y="740" type="line"/>
      <point x="469" y="586"/>
    </contour>
  </outline>
</glyph>
<glyph name="ebreve" format="2">
  <advance width="513"/>
  <unicode hex="0115"/>
  <outline>
    <contour>
      <point x="169" y="291" type="line"/>
      <point x="292" y="296"/>
      <point x="383" y="338"/>
      <point x="383" y="382" type="qcurve" smooth="yes"/>
      <point x="383" y="443"/>
      <point x="309" y="443" type="qcurve" smooth="yes"/>
      <point x="199" y="443"/>
      <point x="170" y="299" type="qcurve"/>
    </contour>
    <contour>
      <point x="250" y="-12" type="qcurve" smooth="yes"/>
      <point x="139" y="-12"/>
      <point x="38" y="109"/>
      <point x="38" y="210" type="qcurve" smooth="yes"/>
      <point x="38" y="285"/>
      <point x="100" y="434"/>
      <point x="224" y="534"/>
      <point x="317" y="534" type="qcurve" smooth="yes"/>
      <point x="391" y="534"/>
      <point x="497" y="460"/>
      <point x="497" y="390" type="qcurve" smooth="yes"/>
      <point x="497" y="304"/>
      <point x="325" y="218"/>
      <point x="156" y="213" type="qcurve"/>
      <point x="155" y="203" type="line"/>
      <point x="153" y="192"/>
      <point x="153" y="183" type="qcurve" smooth="yes"/>
      <point x="153" y="84"/>
      <point x="258" y="84" type="qcurve" smooth="yes"/>
      <point x="341" y="84"/>
      <point x="397" y="161" type="qcurve"/>
      <point x="470" y="101" type="line"/>
      <point x="423" y="43"/>
      <point x="317" y="-12"/>
    </contour>
    <contour>
      <point x="336" y="586" type="qcurve" smooth="yes"/>
      <point x="287" y="586"/>
      <point x="222" y="633"/>
      <point x="186" y="704"/>
      <point x="181" y="742" type="qcurve"/>
      <point x="248" y="776" type="line"/>
      <point x="260" y="748" type="line" smooth="yes"/>
      <point x="277" y="710"/>
      <point x="310" y="672"/>
      <point x="342" y="672" type="qcurve" smooth="yes"/>
      <point x="373" y="672"/>
      <point x="419" y="716"/>
      <point x="453" y="762" type="qcurve"/>
      <point x="464" y="776" type="line"/>
      <point x="534" y="740" type="line"/>
      <point x="459" y="586"/>
    </contour>
  </outline>
</glyph>
<glyph name="Gdotaccent" format="2">
  <advance width="622"/>
  <unicode hex="0120"/>
  <outline>
    <contour>
      <point x="612" y="375" type="line"/>
      <point x="589" y="257" type="line"/>
      <point x="574" y="194"/>
      <point x="523" y="94"/>
      <point x="447" y="25"/>
      <point x="343" y="-12"/>
      <point x="274" y="-12" type="qcurve" smooth="yes"/>
      <point x="225" y="-12"/>
      <point x="139" y="25"/>
      <point x="74" y="97"/>
      <point x="37" y="204"/>
      <point x="37" y="274" type="qcurve" smooth="yes"/>
      <point x="37" y="355"/>
      <point x="82" y="511"/>
      <point x="171" y="634"/>
      <point x="304" y="710"/>
      <point x="393" y="710" type="qcurve" smooth="yes"/>
      <point x="445" y="710"/>
      <point x="525" y="682"/>
      <point x="584" y="637"/>
      <point x="620" y="579"/>
      <point x="629" y="550" type="qcurve"/>
      <point x="528" y="502" type="line"/>
      <point x="524" y="523"/>
      <point x="503" y="562"/>
      <point x="467" y="593"/>
      <point x="416" y="611"/>
      <point x="382" y="611" type="qcurve" smooth="yes"/>
      <point x="302" y="611"/>
      <point x="198" y="505"/>
      <point x="180" y="414" type="qcurve" smooth="yes"/>
      <point x="163" y="326" type="line"/>
      <point x="158" y="306"/>
      <point x="151" y="263"/>
      <point x="151" y="243" type="qcurve" smooth="yes"/>
      <point x="151" y="211"/>
      <point x="168" y="154"/>
      <point x="202" y="111"/>
      <point x="255" y="86"/>
      <point x="290" y="86" type="qcurve" smooth="yes"/>
      <point x="355" y="86"/>
      <point x="454" y="158"/>
      <point x="468" y="229" type="qcurve" smooth="yes"/>
      <point x="478" y="275" type="line"/>
      <point x="309" y="275" type="line"/>
      <point x="329" y="375" type="line"/>
    </contour>
    <contour>
      <point x="428" y="769" type="qcurve" smooth="yes"/>
      <point x="397" y="769"/>
      <point x="369" y="795"/>
      <point x="369" y="816" type="qcurve" smooth="yes"/>
      <point x="369" y="821"/>
      <point x="372" y="833"/>
      <point x="374" y="848" type="qcurve"/>
      <point x="379" y="874"/>
      <point x="413" y="905"/>
      <point x="449" y="905" type="qcurve" smooth="yes"/>
      <point x="481" y="905"/>
      <point x="508" y="879"/>
      <point x="508" y="858" type="qcurve" smooth="yes"/>
      <point x="508" y="853"/>
      <point x="506" y="841"/>
      <point x="503" y="826" type="qcurve"/>
      <point x="499" y="801"/>
      <point x="465" y="769"/>
    </contour>
  </outline>
</glyph>
<glyph name="Gcommaaccent" format="2">
  <advance width="622"/>
  <unicode hex="0122"/>
  <outline>
    <contour>
      <point x="261" y="-54" type="qcurve" smooth="yes"/>
      <point x="288" y="-54"/>
      <point x="314" y="-76"/>
      <point x="314" y="-97" type="qcurve" smooth="yes"/>
      <point x="314" y="-102"/>
      <point x="313" y="-112"/>
      <point x="311" y="-123" type="qcurve" smooth="yes"/>
      <point x="303" y="-162"/>
      <point x="256" y="-237"/>
      <point x="228" y="-260" type="qcurve"/>
      <point x="158" y="-260" type="line"/>
      <point x="184" y="-237"/>
      <point x="215" y="-198"/>
      <point x="226" y="-172" type="qcurve"/>
      <point x="209" y="-170"/>
      <point x="193" y="-149"/>
      <point x="193" y="-133" type="qcurve" smooth="yes"/>
      <point x="193" y="-130"/>
      <point x="194" y="-119"/>
      <point x="196" y="-108" type="qcurve"/>
      <point x="202" y="-81"/>
      <point x="234" y="-54"/>
    </contour>
    <contour>
      <point x="612" y="375" type="line"/>
      <point x="589" y="257" type="line"/>
      <point x="574" y="194"/>
      <point x="523" y="94"/>
      <point x="447" y="25"/>
      <point x="343" y="-12"/>
      <point x="274" y="-12" type="qcurve" smooth="yes"/>
      <point x="225" y="-12"/>
      <point x="139" y="25"/>
      <point x="74" y="97"/>
      <point x="37" y="204"/>
      <point x="37" y="274" type="qcurve" smooth="yes"/>
      <point x="37" y="355"/>
      <point x="82" y="511"/>
      <point x="171" y="634"/>
      <point x="304" y="710"/>
      <point x="393" y="710" type="qcurve" smooth="yes"/>
      <point x="445" y="710"/>
      <point x="525" y="682"/>
      <point x="584" y="637"/>
      <point x="620" y="579"/>
      <point x="629" y="550" type="qcurve"/>
      <point x="528" y="502" type="line"/>
      <point x="524" y="523"/>
      <point x="503" y="562"/>
      <point x="467" y="593"/>
      <point x="416" y="611"/>
      <point x="382" y="611" type="qcurve" smooth="yes"/>
      <point x="302" y="611"/>
      <point x="198" y="505"/>
      <point x="180" y="414" type="qcurve" smooth="yes"/>
      <point x="163" y="326" type="line"/>
      <point x="158" y="306"/>
      <point x="151" y="263"/>
      <point x="151" y="243" type="qcurve" smooth="yes"/>
      <point x="151" y="211"/>
      <point x="168" y="154"/>
      <point x="202" y="111"/>
      <point x="255" y="86"/>
      <point x="290" y="86" type="qcurve" smooth="yes"/>
      <point x="355" y="86"/>
      <point x="454" y="158"/>
      <point x="468" y="229" type="qcurve" smooth="yes"/>
      <point x="478" y="275" type="line"/>
      <point x="309" y="275" type="line"/>
      <point x="329" y="375" type="line"/>
    </contour>
  </outline>
</glyph>
<glyph name="Hcircumflex" format="2">
  <advance width="694"/>
  <unicode hex="0124"/>
  <outline>
    <contour>
      <point x="560" y="0" type="line"/>
      <point x="440" y="0" type="line"/>
      <point x="500" y="299" type="line"/>
      <point x="210" y="299" type="line"/>
      <point x="149" y="0" type="line"/>
      <point x="29" y="0" type="line"/>
      <point x="169" y="698" type="line"/>
      <point x="289" y="698" type="line"/>
      <point x="231" y="406" type="line"/>
      <point x="522" y="406" type="line"/>
      <point x="580" y="698" type="line"/>
      <point x="700" y="698" type="line"/>
    </contour>
    <contour>
      <point x="323" y="747" type="line"/>
      <point x="265" y="795" type="line"/>
      <point x="414" y="947" type="line"/>
      <point x="525" y="947" type="line"/>
      <point x="619" y="795" type="line"/>
      <point x="556" y="748" type="line"/>
      <point x="459" y="863" type="line"/>
    </contour>
  </outline>
</glyph>
<glyph name="itilde" format="2">
  <advance width="274"/>
  <unicode hex="0129"/>
  <outline>
    <contour>
      <point x="203" y="0" type="line"/>
      <point x="121" y="0" type="line" smooth="yes"/>
      <point x="79" y="0"/>
      <point x="39" y="41"/>
      <point x="39" y="74" type="qcurve" smooth="yes"/>
      <point x="39" y="80"/>
      <point x="127" y="522" type="qcurve"/>
      <point x="243" y="522" type="line"/>
      <point x="157" y="95" type="line"/>
      <point x="222" y="95" type="line"/>
    </contour>
    <contour>
      <point x="281" y="605" type="qcurve" smooth="yes"/>
      <point x="259" y="605"/>
      <point x="228" y="616"/>
      <point x="213" y="624" type="qcurve"/>
      <point x="196" y="632" type="line"/>
      <point x="161" y="651"/>
      <point x="136" y="651" type="qcurve" smooth="yes"/>
      <point x="119" y="651"/>
      <point x="95" y="638"/>
      <point x="77" y="625" type="qcurve"/>
      <point x="40" y="682" type="line"/>
      <point x="86" y="741"/>
      <point x="149" y="741" type="qcurve" smooth="yes"/>
      <point x="184" y="741"/>
      <point x="240" y="711" type="qcurve"/>
      <point x="270" y="696"/>
      <point x="293" y="696" type="qcurve" smooth="yes"/>
      <point x="310" y="696"/>
      <point x="334" y="707"/>
      <point x="352" y="721" type="qcurve"/>
      <point x="390" y="664" type="line"/>
      <point x="367" y="637"/>
      <point x="315" y="605"/>
    </contour>
  </outline>
</glyph>
<glyph name="lcaron" format="2">
  <advance width="319"/>
  <unicode hex="013E"/>
  <outline>
    <contour>
      <point x="386" y="536" type="line"/>
      <point x="305" y="536" type="line"/>
      <point x="350" y="740" type="line"/>
      <point x="482" y="740" type="line"/>
    </contour>
    <contour>
      <point x="207" y="0" type="line"/>
      <point x="121" y="0" type="line" smooth="yes"/>
      <point x="78" y="0"/>
      <point x="39" y="42"/>
      <point x="39" y="73" type="qcurve" smooth="yes"/>
      <point x="39" y="83"/>
      <point x="170" y="740" type="qcurve"/>
      <point x="286" y="740" type="line"/>
      <point x="157" y="95" type="line"/>
      <point x="225" y="95" type="line"/>
    </contour>
  </outline>
</glyph>
<glyph name="napostrophe" format="2">
  <advance width="847"/>
  <unicode hex="0149"/>
  <outline>
    <contour>
      <point x="778" y="0" type="line"/>
      <point x="695" y="0" type="line" smooth="yes"/>
      <point x="657" y="0"/>
      <point x="619" y="38"/>
      <point x="619" y="69" type="qcurve" smooth="yes"/>
      <point x="619" y="101"/>
      <point x="632" y="151" type="qcurve"/>
      <point x="649" y="230" type="line" smooth="yes"/>
      <point x="671" y="333"/>
      <point x="671" y="369" type="qcurve" smooth="yes"/>
      <point x="671" y="435"/>
      <point x="608" y="435" type="qcurve" smooth="yes"/>
      <point x="571" y="435"/>
      <point x="510" y="386"/>
      <point x="470" y="314"/>
      <point x="463" y="277" type="qcurve" smooth="yes"/>
      <point x="407" y="0" type="line"/>
      <point x="291" y="0" type="line"/>
      <point x="396" y="522" type="line"/>
      <point x="512" y="522" type="line"/>
      <point x="489" y="407" type="line"/>
      <point x="494" y="407" type="line"/>
      <point x="523" y="469"/>
      <point x="603" y="534"/>
      <point x="662" y="534" type="qcurve" smooth="yes"/>
      <point x="730" y="534"/>
      <point x="791" y="457"/>
      <point x="791" y="395" type="qcurve" smooth="yes"/>
      <point x="791" y="359"/>
      <point x="783" y="324" type="qcurve"/>
      <point x="737" y="95" type="line"/>
      <point x="797" y="95" type="line"/>
    </contour>
    <contour>
      <point x="166" y="465" type="qcurve"/>
      <point x="77" y="465" type="line"/>
      <point x="155" y="527"/>
      <point x="190" y="596" type="qcurve"/>
      <point x="146" y="606"/>
      <point x="146" y="645" type="qcurve" smooth="yes"/>
      <point x="146" y="691"/>
      <point x="188" y="750"/>
      <point x="236" y="750" type="qcurve" smooth="yes"/>
      <point x="272" y="750"/>
      <point x="302" y="716"/>
      <point x="302" y="696" type="qcurve" smooth="yes"/>
      <point x="302" y="643"/>
      <point x="228" y="513"/>
    </contour>
  </outline>
</glyph>
<glyph name="Omacron" format="2">
  <advance width="690"/>
  <unicode hex="014C"/>
  <outline>
    <contour>
      <point x="315" y="96" type="qcurve" smooth="yes"/>
      <point x="399" y="96"/>
      <point x="498" y="203"/>
      <point x="515" y="299" type="qcurve"/>
      <point x="535" y="398" type="line" smooth="yes"/>
      <point x="540" y="423"/>
      <point x="540" y="442" type="qcurve"/>
      <point x="541" y="456" type="line"/>
      <point x="538" y="602"/>
      <point x="405" y="602" type="qcurve" smooth="yes"/>
      <point x="244" y="602"/>
      <point x="203" y="398" type="qcurve" smooth="yes"/>
      <point x="184" y="300" type="line" smooth="yes"/>
      <point x="179" y="275"/>
      <point x="179" y="256" type="qcurve"/>
      <point x="178" y="242" type="line"/>
      <point x="178" y="96"/>
    </contour>
    <contour>
      <point x="305" y="-12" type="qcurve" smooth="yes"/>
      <point x="196" y="-12"/>
      <point x="56" y="135"/>
      <point x="56" y="267" type="qcurve" smooth="yes"/>
      <point x="56" y="388"/>
      <point x="160" y="610"/>
      <point x="264" y="672" type="qcurve" smooth="yes"/>
      <point x="330" y="710"/>
      <point x="414" y="710" type="qcurve" smooth="yes"/>
      <point x="527" y="710"/>
      <point x="663" y="561"/>
      <point x="663" y="431" type="qcurve" smooth="yes"/>
      <point x="663" y="316"/>
      <point x="574" y="113"/>
      <point x="413" y="-12"/>
    </contour>
    <contour>
      <point x="582" y="795" type="line"/>
      <point x="306" y="795" type="line"/>
      <point x="324" y="883" type="line"/>
      <point x="600" y="883" type="line"/>
    </contour>
  </outline>
</glyph>
<glyph name="Tcaron" format="2">
  <advance width="564"/>
  <unicode hex="0164"/>
  <outline>
    <contour>
      <point x="289" y="0" type="line"/>
      <point x="169" y="0" type="line"/>
      <point x="287" y="591" type="line"/>
      <point x="92" y="591" type="line"/>
      <point x="114" y="698" type="line"/>
      <point x="624" y="698" type="line"/>
      <point x="603" y="591" type="line"/>
      <point x="408" y="591" type="line"/>
    </contour>
    <contour>
      <point x="437" y="756" type="line"/>
      <point x="326" y="756" type="line"/>
      <point x="231" y="909" type="line"/>
      <point x="294" y="956" type="line"/>
      <point x="388" y="841" type="line"/>
      <point x="526" y="956" type="line"/>
      <point x="586" y="909" type="line"/>
    </contour>
  </outline>
</glyph>
<glyph name="aringacute" format="2">
  <advance width="588"/>
  <unicode hex="01FB"/>
  <outline>
    <contour>
      <point x="235" y="86" type="qcurve" smooth="yes"/>
      <point x="286" y="86"/>
      <point x="370" y="178"/>
      <point x="385" y="247" type="qcurve"/>
      <point x="396" y="304" type="line" smooth="yes"/>
      <point x="406" y="352"/>
      <point x="406" y="359" type="qcurve" smooth="yes"/>
      <point x="406" y="390"/>
      <point x="356" y="436"/>
      <point x="310" y="436" type="qcurve" smooth="yes"/>
      <point x="204" y="436"/>
      <point x="177" y="304" type="qcurve" smooth="yes"/>
      <point x="170" y="270" type="line"/>
      <point x="157" y="216"/>
      <point x="157" y="177" type="qcurve"/>
      <point x="159" y="86"/>
    </contour>
    <contour>
      <point x="351" y="626" type="qcurve" smooth="yes"/>
      <point x="379" y="626"/>
      <point x="415" y="660"/>
      <point x="415" y="698" type="qcurve" smooth="yes"/>
      <point x="415" y="712"/>
      <point x="401" y="713" type="qcurve"/>
      <point x="398" y="739"/>
      <point x="363" y="739" type="qcurve"/>
      <point x="306" y="732"/>
      <point x="306" y="664" type="qcurve" smooth="yes"/>
      <point x="306" y="626"/>
    </contour>
    <contour>
      <point x="185" y="-12" type="qcurve" smooth="yes"/>
      <point x="149" y="-12"/>
      <point x="94" y="16"/>
      <point x="57" y="65"/>
      <point x="38" y="134"/>
      <point x="38" y="176" type="qcurve" smooth="yes"/>
      <point x="38" y="244"/>
      <point x="72" y="373"/>
      <point x="135" y="472"/>
      <point x="228" y="534"/>
      <point x="286" y="534" type="qcurve" smooth="yes"/>
      <point x="337" y="534"/>
      <point x="410" y="478"/>
      <point x="418" y="433" type="qcurve"/>
      <point x="423" y="433" type="line"/>
      <point x="440" y="522" type="line"/>
      <point x="556" y="522" type="line"/>
      <point x="471" y="95" type="line"/>
      <point x="535" y="95" type="line"/>
      <point x="516" y="0" type="line"/>
      <point x="433" y="0" type="line"/>
      <point x="360" y="2"/>
      <point x="354" y="62" type="qcurve"/>
      <point x="353" y="76" type="line"/>
      <point x="356" y="105"/>
      <point x="359" y="118" type="qcurve"/>
      <point x="355" y="118" type="line"/>
      <point x="324" y="54"/>
      <point x="247" y="-12"/>
    </contour>
    <contour>
      <point x="387" y="814" type="line"/>
      <point x="345" y="860" type="line"/>
      <point x="468" y="976" type="line"/>
      <point x="526" y="913" type="line"/>
    </contour>
    <contour>
      <point x="342" y="565" type="qcurve" smooth="yes"/>
      <point x="292" y="565"/>
      <point x="225" y="616"/>
      <point x="225" y="666" type="qcurve" smooth="yes"/>
      <point x="225" y="732"/>
      <point x="315" y="801"/>
      <point x="379" y="801" type="qcurve" smooth="yes"/>
      <point x="427" y="801"/>
      <point x="496" y="750"/>
      <point x="496" y="700" type="qcurve" smooth="yes"/>
      <point x="496" y="635"/>
      <point x="405" y="565"/>
    </contour>
  </outline>
</glyph>
<glyph name="Oslashacute" format="2">
  <advance width="690"/>
  <unicode hex="01FE"/>
  <outline>
    <contour>
      <point x="313" y="93" type="qcurve" smooth="yes"/>
      <point x="474" y="93"/>
      <point x="516" y="293" type="qcurve" smooth="yes"/>
      <point x="523" y="326" type="line" smooth="yes"/>
      <point x="531" y="360"/>
      <point x="544" y="428"/>
      <point x="544" y="462" type="qcurve" smooth="yes"/>
      <point x="544" y="482"/>
      <point x="539" y="500" type="qcurve"/>
      <point x="217" y="127" type="line"/>
      <point x="252" y="93"/>
    </contour>
    <contour>
      <point x="179" y="198" type="line"/>
      <point x="501" y="571" type="line"/>
      <point x="464" y="605"/>
      <point x="405" y="605" type="qcurve" smooth="yes"/>
      <point x="245" y="605"/>
      <point x="202" y="405" type="qcurve" smooth="yes"/>
      <point x="190" y="347" type="line" smooth="yes"/>
      <point x="176" y="282"/>
      <point x="175" y="247" type="qcurve"/>
      <point x="174" y="240" type="line"/>
      <point x="175" y="232" type="line"/>
      <point x="175" y="213"/>
      <point x="178" y="203" type="qcurve"/>
    </contour>
    <contour>
      <point x="70" y="-55" type="line"/>
      <point x="3" y="4" type="line"/>
      <point x="92" y="108" type="line"/>
      <point x="56" y="169"/>
      <point x="56" y="267" type="qcurve" smooth="yes"/>
      <point x="56" y="388"/>
      <point x="160" y="610"/>
      <point x="264" y="672" type="qcurve" smooth="yes"/>
      <point x="330" y="710"/>
      <point x="414" y="710" type="qcurve" smooth="yes"/>
      <point x="501" y="710"/>
      <point x="569" y="660" type="qcurve"/>
      <point x="649" y="753" type="line"/>
      <point x="716" y="694" type="line"/>
      <point x="627" y="590" type="line"/>
      <point x="662" y="528"/>
      <point x="662" y="431" type="qcurve" smooth="yes"/>
      <point x="662" y="316"/>
      <point x="573" y="113"/>
      <point x="412" y="-12"/>
      <point x="304" y="-12" type="qcurve" smooth="yes"/>
      <point x="214" y="-12"/>
      <point x="149" y="38" type="qcurve"/>
    </contour>
    <contour>
      <point x="441" y="746" type="line"/>
      <point x="370" y="784" type="line"/>
      <point x="483" y="966" type="line"/>
      <point x="579" y="916" type="line"/>
    </contour>
  </outline>
</glyph>
<glyph name="dieresiscomb" format="2">
  <unicode hex="0308"/>
  <outline>
    <contour>
      <point x="112" y="607" type="qcurve" smooth="yes"/>
      <point x="57" y="607"/>
      <point x="57" y="646" type="qcurve" smooth="yes"/>
      <point x="57" y="685"/>
      <point x="92" y="740"/>
      <point x="137" y="740" type="qcurve" smooth="yes"/>
      <point x="191" y="740"/>
      <point x="191" y="697" type="qcurve" smooth="yes"/>
      <point x="191" y="607"/>
    </contour>
    <contour>
      <point x="-80" y="607" type="qcurve"/>
      <point x="-136" y="607"/>
      <point x="-136" y="646" type="qcurve" smooth="yes"/>
      <point x="-136" y="649" type="line" smooth="yes"/>
      <point x="-136" y="740"/>
      <point x="-56" y="740" type="qcurve" smooth="yes"/>
      <point x="-1" y="740"/>
      <point x="-1" y="697" type="qcurve" smooth="yes"/>
      <point x="-1" y="609"/>
    </contour>
  </outline>
</glyph>
<glyph name="caroncomb" format="2">
  <unicode hex="030C"/>
  <outline>
    <contour>
      <point x="69" y="592" type="line"/>
      <point x="-43" y="592" type="line"/>
      <point x="-137" y="745" type="line"/>
      <point x="-74" y="792" type="line"/>
      <point x="19" y="676" type="line"/>
      <point x="158" y="792" type="line"/>
      <point x="218" y="745" type="line"/>
    </contour>
  </outline>
</glyph>
<glyph name="Epsilontonos" format="2">
  <advance width="635"/>
  <unicode hex="0388"/>
  <outline>
    <contour>
      <point x="94" y="0" type="line"/>
      <point x="234" y="698" type="line"/>
      <point x="664" y="698" type="line"/>
      <point x="644" y="598" type="line"/>
      <point x="328" y="598" type="line"/>
      <point x="289" y="403" type="line"/>
      <point x="571" y="403" type="line"/>
      <point x="551" y="303" type="line"/>
      <point x="268" y="303" type="line"/>
      <point x="228" y="100" type="line"/>
      <point x="558" y="100" type="line"/>
      <point x="538" y="0" type="line"/>
    </contour>
    <contour>
      <point x="124" y="582" type="line"/>
      <point x="54" y="602" type="line"/>
      <point x="122" y="797" type="line"/>
      <point x="221" y="773" type="line"/>
    </contour>
  </outline>
</glyph>
<glyph name="Lambda" format="2">
  <advance width="626"/>
  <unicode hex="039B"/>
  <outline>
    <contour>
      <point x="468" y="698" type="line"/>
      <point x="553" y="0" type="line"/>
      <point x="439" y="0" type="line"/>
      <point x="406" y="309" type="line"/>
      <point x="381" y="582" type="line"/>
      <point x="375" y="582" type="line"/>
      <point x="250" y="321" type="line"/>
      <point x="88" y="0" type="line"/>
      <point x="-32" y="0" type="line"/>
      <point x="333" y="698" type="line"/>
    </contour>
  </outline>
</glyph>
<glyph name="Xi" format="2">
  <advance width="586"/>
  <unicode hex="039E"/>
  <outline>
    <contour>
      <point x="26" y="100" type="line"/>
      <point x="495" y="100" type="line"/>
      <point x="474" y="0" type="line"/>
      <point x="6" y="0" type="line"/>
    </contour>
    <contour>
      <point x="146" y="698" type="line"/>
      <point x="615" y="698" type="line"/>
      <point x="594" y="598" type="line"/>
      <point x="126" y="598" type="line"/>
    </contour>
    <contour>
      <point x="144" y="403" type="line"/>
      <point x="498" y="403" type="line"/>
      <point x="478" y="303" type="line"/>
      <point x="124" y="303" type="line"/>
    </contour>
  </outline>
</glyph>
<glyph name="Pi" format="2">
  <advance width="678"/>
  <unicode hex="03A0"/>
  <outline>
    <contour>
      <point x="169" y="698" type="line"/>
      <point x="681" y="698" type="line"/>
      <point x="540" y="0" type="line"/>
      <point x="427" y="0" type="line"/>
      <point x="547" y="597" type="line"/>
      <point x="262" y="597" type="line"/>
      <point x="142" y="0" type="line"/>
      <point x="29" y="0" type="line"/>
    </contour>
  </outline>
</glyph>
<glyph name="Rho" format="2">
  <advance width="618"/>
  <unicode hex="03A1"/>
  <outline>
    <contour>
      <point x="218" y="376" type="line"/>
      <point x="372" y="376" type="line" smooth="yes"/>
      <point x="417" y="376"/>
      <point x="482" y="412"/>
      <point x="493" y="463" type="qcurve" smooth="yes"/>
      <point x="501" y="501" type="line" smooth="yes"/>
      <point x="503" y="510"/>
      <point x="505" y="525"/>
      <point x="505" y="530" type="qcurve" smooth="yes"/>
      <point x="505" y="560"/>
      <point x="468" y="598"/>
      <point x="425" y="598" type="qcurve" smooth="yes"/>
      <point x="262" y="598" type="line"/>
    </contour>
    <contour>
      <point x="29" y="0" type="line"/>
      <point x="169" y="698" type="line"/>
      <point x="425" y="698" type="line" smooth="yes"/>
      <point x="520" y="698"/>
      <point x="622" y="606"/>
      <point x="622" y="521" type="qcurve" smooth="yes"/>
      <point x="622" y="470"/>
      <point x="587" y="380"/>
      <point x="521" y="314"/>
      <point x="427" y="276"/>
      <point x="369" y="276" type="qcurve" smooth="yes"/>
      <point x="198" y="276" type="line"/>
      <point x="142" y="0" type="line"/>
    </contour>
  </outline>
</glyph>
<glyph name="Becyr" format="2">
  <advance width="620"/>
  <unicode hex="0411"/>
  <outline>
    <contour>
      <point x="335" y="107" type="line" smooth="yes"/>
      <point x="400" y="107"/>
      <point x="429" y="168" type="qcurve" smooth="yes"/>
      <point x="449" y="211"/>
      <point x="449" y="258" type="qcurve" smooth="yes"/>
      <point x="449" y="316"/>
      <point x="375" y="318" type="qcurve"/>
      <point x="213" y="318" type="line"/>
      <point x="171" y="107" type="line"/>
    </contour>
    <contour>
      <point x="319" y="0" type="qcurve" smooth="yes"/>
      <point x="29" y="0" type="line"/>
      <point x="169" y="698" type="line"/>
      <point x="606" y="698" type="line"/>
      <point x="584" y="591" type="line"/>
      <point x="268" y="591" type="line"/>
      <point x="235" y="425" type="line"/>
      <point x="373" y="425" type="line" smooth="yes"/>
      <point x="478" y="425"/>
      <point x="573" y="326"/>
      <point x="573" y="246" type="qcurve" smooth="yes"/>
      <point x="573" y="140"/>
      <point x="434" y="0"/>
    </contour>
  </outline>
</glyph>
<glyph name="Pecyr" format="2">
  <advance width="678"/>
  <unicode hex="041F"/>
  <outline>
    <contour>
      <point x="544" y="0" type="line"/>
      <point x="424" y="0" type="line"/>
      <point x="543" y="591" type="line"/>
      <point x="268" y="591" type="line"/>
      <point x="149" y="0" type="line"/>
      <point x="29" y="0" type="line"/>
      <point x="169" y="698" type="line"/>
      <point x="684" y="698" type="line"/>
    </contour>
  </outline>
</glyph>
<glyph name="elcyr" format="2">
  <advance width="571"/>
  <unicode hex="043B"/>
  <outline>
    <contour>
      <point x="-1" y="-4" type="qcurve" smooth="yes"/>
      <point x="-42" y="-4" type="line"/>
      <point x="-22" y="95" type="line"/>
      <point x="44" y="95" type="line"/>
      <point x="104" y="166"/>
      <point x="146" y="380" type="qcurve" smooth="yes"/>
      <point x="174" y="522" type="line"/>
      <point x="549" y="522" type="line"/>
      <point x="445" y="0" type="line"/>
      <point x="329" y="0" type="line"/>
      <point x="415" y="426" type="line"/>
      <point x="265" y="426" type="line"/>
      <point x="241" y="307"/>
      <point x="205" y="168"/>
      <point x="154" y="63"/>
      <point x="98" y="11"/>
      <point x="35" y="-4"/>
    </contour>
  </outline>
</glyph>
<glyph name="checyr" format="2">
  <advance width="545"/>
  <unicode hex="0447"/>
  <outline>
    <contour>
      <point x="419" y="0" type="line"/>
      <point x="303" y="0" type="line"/>
      <point x="356" y="264" type="line"/>
      <point x="350" y="264" type="line"/>
      <point x="297" y="163"/>
      <point x="196" y="163" type="qcurve" smooth="yes"/>
      <point x="130" y="163"/>
      <point x="61" y="235"/>
      <point x="61" y="286" type="qcurve" smooth="yes"/>
      <point x="61" y="325"/>
      <point x="68" y="357" type="qcurve" smooth="yes"/>
      <point x="102" y="522" type="line"/>
      <point x="218" y="522" type="line"/>
      <point x="186" y="362" type="line" smooth="yes"/>
      <point x="182" y="342"/>
      <point x="181" y="322" type="qcurve"/>
      <point x="181" y="316" type="line" smooth="yes"/>
      <point x="181" y="262"/>
      <point x="246" y="262" type="qcurve" smooth="yes"/>
      <point x="356" y="262"/>
      <point x="379" y="383" type="qcurve" smooth="yes"/>
      <point x="407" y="522" type="line"/>
      <point x="523" y="522" type="line"/>
    </contour>
  </outline>
</glyph>
<glyph name="shacyr" format="2">
  <advance width="847"/>
  <unicode hex="0448"/>
  <outline>
    <contour>
      <point x="451" y="-12" type="qcurve" smooth="yes"/>
      <point x="394" y="-12"/>
      <point x="340" y="57"/>
      <point x="338" y="115" type="qcurve"/>
      <point x="333" y="115" type="line"/>
      <point x="276" y="-12"/>
      <point x="168" y="-12" type="qcurve" smooth="yes"/>
      <point x="107" y="-12"/>
      <point x="49" y="61"/>
      <point x="49" y="122" type="qcurve" smooth="yes"/>
      <point x="49" y="145"/>
      <point x="52" y="165" type="qcurve"/>
      <point x="53" y="175"/>
      <point x="121" y="522" type="qcurve"/>
      <point x="237" y="522" type="line"/>
      <point x="175" y="207" type="line"/>
      <point x="167" y="178"/>
      <point x="167" y="149" type="qcurve" smooth="yes"/>
      <point x="167" y="88"/>
      <point x="222" y="87" type="qcurve"/>
      <point x="265" y="87"/>
      <point x="343" y="185"/>
      <point x="355" y="245" type="qcurve" smooth="yes"/>
      <point x="411" y="522" type="line"/>
      <point x="526" y="522" type="line"/>
      <point x="464" y="207" type="line"/>
      <point x="456" y="178"/>
      <point x="456" y="149" type="qcurve" smooth="yes"/>
      <point x="456" y="88"/>
      <point x="508" y="88" type="qcurve" smooth="yes"/>
      <point x="514" y="88" type="line"/>
      <point x="556" y="91"/>
      <point x="597" y="143" type="qcurve"/>
      <point x="635" y="194"/>
      <point x="644" y="245" type="qcurve"/>
      <point x="700" y="522" type="line"/>
      <point x="816" y="522" type="line"/>
      <point x="730" y="95" type="line"/>
      <point x="794" y="95" type="line"/>
      <point x="776" y="0" type="line"/>
      <point x="691" y="0" type="line"/>
      <point x="653" y="2"/>
      <point x="612" y="38"/>
      <point x="612" y="72" type="qcurve" smooth="yes"/>
      <point x="612" y="81"/>
      <point x="618" y="115" type="qcurve"/>
      <point x="612" y="115" type="line"/>
      <point x="583" y="52"/>
      <point x="507" y="-12"/>
    </contour>
  </outline>
</glyph>
<glyph name="Geupcyr" format="2">
  <advance width="493"/>
  <unicode hex="0490"/>
  <outline>
    <contour>
      <point x="149" y="0" type="line"/>
      <point x="29" y="0" type="line"/>
      <point x="169" y="698" type="line"/>
      <point x="440" y="698" type="line"/>
      <point x="471" y="848" type="line"/>
      <point x="583" y="848" type="line"/>
      <point x="532" y="591" type="line"/>
      <point x="268" y="591" type="line"/>
    </contour>
  </outline>
</glyph>
<glyph name="odieresiscyr" format="2">
  <advance width="546"/>
  <unicode hex="04E7"/>
  <outline>
    <contour>
      <point x="246" y="84" type="qcurve" smooth="yes"/>
      <point x="344" y="84"/>
      <point x="373" y="225" type="qcurve" smooth="yes"/>
      <point x="389" y="301" type="line"/>
      <point x="393" y="313"/>
      <point x="393" y="340" type="qcurve"/>
      <point x="392" y="384"/>
      <point x="347" y="437"/>
      <point x="300" y="437" type="qcurve" smooth="yes"/>
      <point x="203" y="437"/>
      <point x="173" y="297" type="qcurve" smooth="yes"/>
      <point x="157" y="220" type="line"/>
      <point x="153" y="204"/>
      <point x="153" y="182" type="qcurve" smooth="yes"/>
      <point x="153" y="138"/>
      <point x="196" y="84"/>
    </contour>
    <contour>
      <point x="239" y="-12" type="qcurve" smooth="yes"/>
      <point x="151" y="-12"/>
      <point x="38" y="94"/>
      <point x="38" y="204" type="qcurve" smooth="yes"/>
      <point x="38" y="288"/>
      <point x="102" y="439"/>
      <point x="222" y="534"/>
      <point x="307" y="534" type="qcurve" smooth="yes"/>
      <point x="394" y="534"/>
      <point x="508" y="427"/>
      <point x="508" y="317" type="qcurve" smooth="yes"/>
      <point x="508" y="178"/>
      <point x="353" y="-12"/>
    </contour>
    <contour>
      <point x="236" y="607" type="qcurve" smooth="yes"/>
      <point x="181" y="607"/>
      <point x="181" y="646" type="qcurve" smooth="yes"/>
      <point x="181" y="685"/>
      <point x="216" y="740"/>
      <point x="261" y="740" type="qcurve" smooth="yes"/>
      <point x="315" y="740"/>
      <point x="315" y="697" type="qcurve" smooth="yes"/>
      <point x="315" y="607"/>
    </contour>
    <contour>
      <point x="429" y="607" type="qcurve" smooth="yes"/>
      <point x="373" y="607"/>
      <point x="373" y="646" type="qcurve" smooth="yes"/>
      <point x="373" y="740"/>
      <point x="454" y="740" type="qcurve" smooth="yes"/>
      <point x="508" y="740"/>
      <point x="508" y="697" type="qcurve" smooth="yes"/>
      <point x="508" y="607"/>
    </contour>
  </outline>
</glyph>
<glyph name="ylongdieresiscyr" format="2">
  <advance width="745"/>
  <unicode hex="04F9"/>
  <outline>
    <contour>
      <point x="253" y="89" type="line" smooth="yes"/>
      <point x="303" y="89"/>
      <point x="356" y="155"/>
      <point x="356" y="207" type="qcurve" smooth="yes"/>
      <point x="356" y="232"/>
      <point x="322" y="265"/>
      <point x="287" y="265" type="qcurve" smooth="yes"/>
      <point x="191" y="265" type="line"/>
      <point x="156" y="89" type="line"/>
    </contour>
    <contour>
      <point x="618" y="0" type="line"/>
      <point x="502" y="0" type="line"/>
      <point x="606" y="522" type="line"/>
      <point x="722" y="522" type="line"/>
    </contour>
    <contour>
      <point x="346" y="607" type="qcurve" smooth="yes"/>
      <point x="290" y="607"/>
      <point x="290" y="646" type="qcurve" smooth="yes"/>
      <point x="290" y="740"/>
      <point x="371" y="740" type="qcurve" smooth="yes"/>
      <point x="425" y="740"/>
      <point x="425" y="697" type="qcurve" smooth="yes"/>
      <point x="425" y="607"/>
    </contour>
    <contour>
      <point x="539" y="607" type="qcurve" smooth="yes"/>
      <point x="483" y="607"/>
      <point x="483" y="646" type="qcurve" smooth="yes"/>
      <point x="483" y="685"/>
      <point x="518" y="740"/>
      <point x="563" y="740" type="qcurve" smooth="yes"/>
      <point x="618" y="740"/>
      <point x="618" y="698" type="qcurve" smooth="yes"/>
      <point x="618" y="607"/>
    </contour>
    <contour>
      <point x="262" y="0" type="qcurve" smooth="yes"/>
      <point x="23" y="0" type="line"/>
      <point x="127" y="522" type="line"/>
      <point x="243" y="522" type="line"/>
      <point x="209" y="354" type="line"/>
      <point x="325" y="354" type="line" smooth="yes"/>
      <point x="401" y="354"/>
      <point x="471" y="275"/>
      <point x="471" y="212" type="qcurve" smooth="yes"/>
      <point x="471" y="111"/>
      <point x="350" y="0"/>
    </contour>
  </outline>
</glyph>
<glyph name="baht-thai" format="2">
  <advance width="633"/>
  <unicode hex="0E3F"/>
  <outline>
    <contour>
      <point x="359" y="121" type="line" smooth="yes"/>
      <point x="396" y="121"/>
      <point x="442" y="159"/>
      <point x="463" y="218"/>
      <point x="463" y="249" type="qcurve" smooth="yes"/>
      <point x="463" y="305"/>
      <point x="391" y="305" type="qcurve" smooth="yes"/>
      <point x="366" y="305" type="line"/>
      <point x="329" y="121" type="line"/>
    </contour>
    <contour>
      <point x="303" y="402" type="line"/>
      <point x="337" y="577" type="line"/>
      <point x="259" y="577" type="line"/>
      <point x="225" y="402" type="line"/>
    </contour>
    <contour>
      <point x="391" y="402" type="line" smooth="yes"/>
      <point x="447" y="402"/>
      <point x="495" y="474"/>
      <point x="495" y="521" type="qcurve" smooth="yes"/>
      <point x="495" y="577"/>
      <point x="427" y="577" type="qcurve" smooth="yes"/>
      <point x="420" y="577" type="line"/>
      <point x="385" y="402" type="line"/>
    </contour>
    <contour>
      <point x="247" y="121" type="line"/>
      <point x="284" y="305" type="line"/>
      <point x="205" y="305" type="line"/>
      <point x="168" y="121" type="line"/>
    </contour>
    <contour>
      <point x="294" y="-87" type="line"/>
      <point x="199" y="-87" type="line"/>
      <point x="220" y="20" type="line"/>
      <point x="33" y="20" type="line"/>
      <point x="165" y="677" type="line"/>
      <point x="352" y="677" type="line"/>
      <point x="373" y="780" type="line"/>
      <point x="467" y="780" type="line"/>
      <point x="446" y="677" type="line"/>
      <point x="535" y="673"/>
      <point x="618" y="592"/>
      <point x="618" y="532" type="qcurve" smooth="yes"/>
      <point x="618" y="465"/>
      <point x="540" y="385"/>
      <point x="481" y="369" type="qcurve"/>
      <point x="480" y="365" type="line"/>
      <point x="527" y="353"/>
      <point x="581" y="285"/>
      <point x="581" y="232" type="qcurve" smooth="yes"/>
      <point x="581" y="181"/>
      <point x="524" y="84"/>
      <point x="418" y="20"/>
      <point x="344" y="20" type="qcurve" smooth="yes"/>
      <point x="315" y="20" type="line"/>
    </contour>
  </outline>
</glyph>
<glyph name="Acircumflextilde" format="2">
  <advance width="645"/>
  <unicode hex="1EAA"/>
  <outline>
    <contour>
      <point x="421" y="286" type="line"/>
      <point x="392" y="588" type="line"/>
      <point x="385" y="588" type="line"/>
      <point x="238" y="286" type="line"/>
    </contour>
    <contour>
      <point x="573" y="0" type="line"/>
      <point x="450" y="0" type="line"/>
      <point x="430" y="183" type="line"/>
      <point x="189" y="183" type="line"/>
      <point x="97" y="0" type="line"/>
      <point x="-32" y="0" type="line"/>
      <point x="333" y="698" type="line"/>
      <point x="488" y="698" type="line"/>
    </contour>
    <contour>
      <point x="516" y="952" type="qcurve" smooth="yes"/>
      <point x="482" y="952"/>
      <point x="461" y="967" type="qcurve"/>
      <point x="434" y="982"/>
      <point x="400" y="997"/>
      <point x="383" y="997" type="qcurve" smooth="yes"/>
      <point x="366" y="997"/>
      <point x="339" y="982"/>
      <point x="324" y="971" type="qcurve"/>
      <point x="293" y="1024" type="line"/>
      <point x="342" y="1082"/>
      <point x="404" y="1082" type="qcurve" smooth="yes"/>
      <point x="423" y="1082"/>
      <point x="442" y="1075" type="qcurve"/>
      <point x="481" y="1056" type="line"/>
      <point x="511" y="1038"/>
      <point x="538" y="1038" type="qcurve" smooth="yes"/>
      <point x="554" y="1038"/>
      <point x="581" y="1049"/>
      <point x="597" y="1063" type="qcurve"/>
      <point x="628" y="1010" type="line"/>
      <point x="580" y="952"/>
    </contour>
    <contour>
      <point x="533" y="739" type="line"/>
      <point x="433" y="846" type="line"/>
      <point x="300" y="739" type="line"/>
      <point x="245" y="790" type="line"/>
      <point x="398" y="923" type="line"/>
      <point x="490" y="923" type="line"/>
      <point x="593" y="790" type="line"/>
    </contour>
  </outline>
</glyph>
<glyph name="etilde" format="2">
  <advance width="513"/>
  <unicode hex="1EBD"/>
  <outline>
    <contour>
      <point x="169" y="291" type="line"/>
      <point x="292" y="296"/>
      <point x="383" y="338"/>
      <point x="383" y="382" type="qcurve" smooth="yes"/>
      <point x="383" y="443"/>
      <point x="309" y="443" type="qcurve" smooth="yes"/>
      <point x="199" y="443"/>
      <point x="170" y="299" type="qcurve"/>
    </contour>
    <contour>
      <point x="250" y="-12" type="qcurve" smooth="yes"/>
      <point x="139" y="-12"/>
      <point x="38" y="109"/>
      <point x="38" y="210" type="qcurve" smooth="yes"/>
      <point x="38" y="285"/>
      <point x="100" y="434"/>
      <point x="224" y="534"/>
      <point x="317" y="534" type="qcurve" smooth="yes"/>
      <point x="391" y="534"/>
      <point x="497" y="460"/>
      <point x="497" y="390" type="qcurve" smooth="yes"/>
      <point x="497" y="304"/>
      <point x="325" y="218"/>
      <point x="156" y="213" type="qcurve"/>
      <point x="155" y="203" type="line"/>
      <point x="153" y="192"/>
      <point x="153" y="183" type="qcurve" smooth="yes"/>
      <point x="153" y="84"/>
      <point x="258" y="84" type="qcurve" smooth="yes"/>
      <point x="341" y="84"/>
      <point x="397" y="161" type="qcurve"/>
      <point x="470" y="101" type="line"/>
      <point x="423" y="43"/>
      <point x="317" y="-12"/>
    </contour>
    <contour>
      <point x="415" y="605" type="qcurve" smooth="yes"/>
      <point x="393" y="605"/>
      <point x="362" y="616"/>
      <point x="347" y="624" type="qcurve"/>
      <point x="330" y="632" type="line"/>
      <point x="295" y="651"/>
      <point x="270" y="651" type="qcurve" smooth="yes"/>
      <point x="254" y="651"/>
      <point x="230" y="638"/>
      <point x="212" y="625" type="qcurve"/>
      <point x="174" y="682" type="line"/>
      <point x="220" y="741"/>
      <point x="283" y="741" type="qcurve" smooth="yes"/>
      <point x="319" y="741"/>
      <point x="375" y="711" type="qcurve" smooth="yes"/>
      <point x="404" y="696"/>
      <point x="428" y="696" type="qcurve" smooth="yes"/>
      <point x="444" y="696"/>
      <point x="468" y="707"/>
      <point x="486" y="721" type="qcurve"/>
      <point x="524" y="664" type="line"/>
      <point x="477" y="605"/>
    </contour>
  </outline>
</glyph>
<glyph name="ihoi" format="2">
  <advance width="274"/>
  <unicode hex="1EC9"/>
  <outline>
    <contour>
      <point x="203" y="0" type="line"/>
      <point x="121" y="0" type="line" smooth="yes"/>
      <point x="79" y="0"/>
      <point x="39" y="41"/>
      <point x="39" y="74" type="qcurve" smooth="yes"/>
      <point x="39" y="80"/>
      <point x="127" y="522" type="qcurve"/>
      <point x="243" y="522" type="line"/>
      <point x="157" y="95" type="line"/>
      <point x="222" y="95" type="line"/>
    </contour>
    <contour>
      <point x="231" y="573" type="line"/>
      <point x="173" y="603" type="line"/>
      <point x="230" y="701" type="line"/>
      <point x="113" y="701" type="line"/>
      <point x="129" y="788" type="line"/>
      <point x="260" y="788" type="line" smooth="yes"/>
      <point x="299" y="788"/>
      <point x="332" y="753"/>
      <point x="332" y="734" type="qcurve" smooth="yes"/>
      <point x="332" y="703"/>
      <point x="296" y="646"/>
      <point x="272" y="620" type="qcurve"/>
    </contour>
  </outline>
</glyph>
<glyph name="idotbelow" format="2">
  <advance width="274"/>
  <unicode hex="1ECB"/>
  <outline>
    <contour>
      <point x="88" y="-190" type="qcurve" smooth="yes"/>
      <point x="29" y="-190"/>
      <point x="29" y="-144" type="qcurve" smooth="yes"/>
      <point x="29" y="-140"/>
      <point x="32" y="-128"/>
      <point x="34" y="-112" type="qcurve"/>
      <point x="41" y="-85"/>
      <point x="75" y="-58"/>
      <point x="107" y="-58" type="qcurve" smooth="yes"/>
      <point x="166" y="-58"/>
      <point x="166" y="-104" type="qcurve" smooth="yes"/>
      <point x="166" y="-112"/>
      <point x="161" y="-125"/>
      <point x="160" y="-136" type="qcurve"/>
      <point x="153" y="-163"/>
      <point x="119" y="-190"/>
    </contour>
    <contour>
      <point x="203" y="603" type="qcurve" smooth="yes"/>
      <point x="143" y="603"/>
      <point x="143" y="648" type="qcurve" smooth="yes"/>
      <point x="143" y="666"/>
      <point x="155" y="711"/>
      <point x="192" y="745"/>
      <point x="228" y="745" type="qcurve" smooth="yes"/>
      <point x="260" y="745"/>
      <point x="289" y="719"/>
      <point x="289" y="700" type="qcurve" smooth="yes"/>
      <point x="289" y="663"/>
      <point x="251" y="603"/>
    </contour>
    <contour>
      <point x="203" y="0" type="line"/>
      <point x="121" y="0" type="line" smooth="yes"/>
      <point x="79" y="0"/>
      <point x="39" y="42"/>
      <point x="39" y="73" type="qcurve" smooth="yes"/>
      <point x="39" y="85"/>
      <point x="127" y="522" type="qcurve"/>
      <point x="243" y="522" type="line"/>
      <point x="157" y="95" type="line"/>
      <point x="222" y="95" type="line"/>
    </contour>
  </outline>
</glyph>
<glyph name="Uhorndotbelow" format="2">
  <advance width="669"/>
  <unicode hex="1EF0"/>
  <outline>
    <contour>
      <point x="247" y="-190" type="qcurve" smooth="yes"/>
      <point x="188" y="-190"/>
      <point x="188" y="-144" type="qcurve" smooth="yes"/>
      <point x="188" y="-140"/>
      <point x="191" y="-128"/>
      <point x="193" y="-112" type="qcurve"/>
      <point x="203" y="-58"/>
      <point x="266" y="-58" type="qcurve" smooth="yes"/>
      <point x="325" y="-58"/>
      <point x="325" y="-104" type="qcurve" smooth="yes"/>
      <point x="325" y="-111"/>
      <point x="320" y="-127"/>
      <point x="320" y="-136" type="qcurve"/>
      <point x="312" y="-163"/>
      <point x="278" y="-190"/>
    </contour>
    <contour>
      <point x="297" y="-12" type="qcurve" smooth="yes"/>
      <point x="185" y="-12"/>
      <point x="76" y="101"/>
      <point x="76" y="205" type="qcurve" smooth="yes"/>
      <point x="76" y="247"/>
      <point x="86" y="300" type="qcurve" smooth="yes"/>
      <point x="165" y="698" type="line"/>
      <point x="285" y="698" type="line"/>
      <point x="201" y="278" type="line" smooth="yes"/>
      <point x="193" y="240"/>
      <point x="193" y="211" type="qcurve"/>
      <point x="196" y="99"/>
      <point x="305" y="99" type="qcurve" smooth="yes"/>
      <point x="376" y="99"/>
      <point x="456" y="185"/>
      <point x="473" y="275" type="qcurve" smooth="yes"/>
      <point x="558" y="698" type="line"/>
      <point x="646" y="698" type="line"/>
      <point x="668" y="806" type="line"/>
      <point x="771" y="806" type="line"/>
      <point x="762" y="764" type="line"/>
      <point x="751" y="694"/>
      <point x="716" y="624"/>
      <point x="662" y="624" type="qcurve"/>
      <point x="593" y="276" type="line" smooth="yes"/>
      <point x="564" y="123"/>
      <point x="424" y="-12"/>
    </contour>
  </outline>
</glyph>
<glyph name="Ygrave" format="2">
  <advance width="606"/>
  <unicode hex="1EF2"/>
  <outline>
    <contour>
      <point x="309" y="0" type="line"/>
      <point x="189" y="0" type="line"/>
      <point x="244" y="272" type="line"/>
      <point x="96" y="698" type="line"/>
      <point x="219" y="698" type="line"/>
      <point x="322" y="386" type="line"/>
      <point x="327" y="386" type="line"/>
      <point x="547" y="698" type="line"/>
      <point x="682" y="698" type="line"/>
      <point x="363" y="264" type="line"/>
    </contour>
    <contour>
      <point x="369" y="746" type="line"/>
      <point x="272" y="917" type="line"/>
      <point x="375" y="966" type="line"/>
      <point x="441" y="778" type="line"/>
    </contour>
  </outline>
</glyph>
<glyph name="Ydotbelow" format="2">
  <advance width="606"/>
  <unicode hex="1EF4"/>
  <outline>
    <contour>
      <point x="215" y="-190" type="qcurve" smooth="yes"/>
      <point x="156" y="-190"/>
      <point x="156" y="-144" type="qcurve" smooth="yes"/>
      <point x="156" y="-140"/>
      <point x="159" y="-128"/>
      <point x="161" y="-112" type="qcurve"/>
      <point x="171" y="-58"/>
      <point x="234" y="-58" type="qcurve" smooth="yes"/>
      <point x="293" y="-58"/>
      <point x="293" y="-104" type="qcurve" smooth="yes"/>
      <point x="293" y="-111"/>
      <point x="288" y="-127"/>
      <point x="288" y="-136" type="qcurve"/>
      <point x="280" y="-163"/>
      <point x="246" y="-190"/>
    </contour>
    <contour>
      <point x="309" y="0" type="line"/>
      <point x="189" y="0" type="line"/>
      <point x="244" y="272" type="line"/>
      <point x="96" y="698" type="line"/>
      <point x="219" y="698" type="line"/>
      <point x="322" y="386" type="line"/>
      <point x="327" y="386" type="line"/>
      <point x="547" y="698" type="line"/>
      <point x="682" y="698" type="line"/>
      <point x="363" y="264" type="line"/>
    </contour>
  </outline>
</glyph>
<glyph name="Yhoi" format="2">
  <advance width="606"/>
  <unicode hex="1EF6"/>
  <outline>
    <contour>
      <point x="309" y="0" type="line"/>
      <point x="189" y="0" type="line"/>
      <point x="244" y="272" type="line"/>
      <point x="96" y="698" type="line"/>
      <point x="219" y="698" type="line"/>
      <point x="322" y="386" type="line"/>
      <point x="327" y="386" type="line"/>
      <point x="547" y="698" type="line"/>
      <point x="682" y="698" type="line"/>
      <point x="363" y="264" type="line"/>
    </contour>
    <contour>
      <point x="422" y="737" type="line"/>
      <point x="364" y="767" type="line"/>
      <point x="420" y="865" type="line"/>
      <point x="304" y="865" type="line"/>
      <point x="319" y="952" type="line"/>
      <point x="450" y="952" type="line" smooth="yes"/>
      <point x="490" y="952"/>
      <point x="522" y="919"/>
      <point x="522" y="898" type="qcurve" smooth="yes"/>
      <point x="522" y="866"/>
      <point x="488" y="811"/>
      <point x="463" y="784" type="qcurve"/>
    </contour>
  </outline>
</glyph>
<glyph name="endash" format="2">
  <advance width="576"/>
  <unicode hex="2013"/>
  <outline>
    <contour>
      <point x="539" y="255" type="line"/>
      <point x="34" y="255" type="line"/>
      <point x="54" y="353" type="line"/>
      <point x="559" y="353" type="line"/>
    </contour>
  </outline>
</glyph>
<glyph name="quotedblright" format="2">
  <advance width="501"/>
  <unicode hex="201D"/>
  <outline>
    <contour>
      <point x="386" y="465" type="qcurve"/>
      <point x="297" y="465" type="line"/>
      <point x="375" y="527"/>
      <point x="410" y="596" type="qcurve"/>
      <point x="366" y="606"/>
      <point x="366" y="645" type="qcurve" smooth="yes"/>
      <point x="366" y="691"/>
      <point x="408" y="750"/>
      <point x="456" y="750" type="qcurve" smooth="yes"/>
      <point x="492" y="750"/>
      <point x="522" y="716"/>
      <point x="522" y="696" type="qcurve" smooth="yes"/>
      <point x="522" y="643"/>
      <point x="448" y="513"/>
    </contour>
    <contour>
      <point x="166" y="465" type="qcurve"/>
      <point x="77" y="465" type="line"/>
      <point x="155" y="527"/>
      <point x="190" y="596" type="qcurve"/>
      <point x="146" y="606"/>
      <point x="146" y="645" type="qcurve" smooth="yes"/>
      <point x="146" y="691"/>
      <point x="188" y="750"/>
      <point x="236" y="750" type="qcurve" smooth="yes"/>
      <point x="272" y="750"/>
      <point x="302" y="716"/>
      <point x="302" y="696" type="qcurve" smooth="yes"/>
      <point x="302" y="643"/>
      <point x="228" y="513"/>
    </contour>
  </outline>
</glyph>
<glyph name="four.superior" format="2">
  <advance width="342"/>
  <unicode hex="2074"/>
  <outline>
    <contour>
      <point x="232" y="462" type="line"/>
      <point x="260" y="603" type="line"/>
      <point x="255" y="603" type="line"/>
      <point x="129" y="462" type="line"/>
    </contour>
    <contour>
      <point x="285" y="329" type="line"/>
      <point x="205" y="329" type="line"/>
      <point x="219" y="400" type="line"/>
      <point x="45" y="400" type="line"/>
      <point x="59" y="471" type="line"/>
      <point x="261" y="698" type="line"/>
      <point x="359" y="698" type="line"/>
      <point x="311" y="462" type="line"/>
      <point x="359" y="462" type="line"/>
      <point x="346" y="400" type="line"/>
      <point x="299" y="400" type="line"/>
    </contour>
  </outline>
</glyph>
<glyph name="nine.inferior" format="2">
  <advance width="350"/>
  <unicode hex="2089"/>
  <outline>
    <contour>
      <point x="155" y="193" type="qcurve" smooth="yes"/>
      <point x="186" y="193"/>
      <point x="224" y="230"/>
      <point x="224" y="270" type="qcurve" smooth="yes"/>
      <point x="224" y="313"/>
      <point x="173" y="313" type="qcurve" smooth="yes"/>
      <point x="147" y="313"/>
      <point x="104" y="281"/>
      <point x="104" y="247" type="qcurve" smooth="yes"/>
      <point x="104" y="237" type="line" smooth="yes"/>
      <point x="104" y="193"/>
    </contour>
    <contour>
      <point x="124" y="0" type="qcurve"/>
      <point x="3" y="0" type="line"/>
      <point x="80" y="42"/>
      <point x="186" y="127"/>
      <point x="208" y="186" type="qcurve"/>
      <point x="203" y="188" type="line"/>
      <point x="170" y="132"/>
      <point x="111" y="132" type="qcurve" smooth="yes"/>
      <point x="64" y="132"/>
      <point x="17" y="187"/>
      <point x="17" y="229" type="qcurve" smooth="yes"/>
      <point x="17" y="291"/>
      <point x="105" y="375"/>
      <point x="178" y="375" type="qcurve" smooth="yes"/>
      <point x="245" y="375"/>
      <point x="307" y="306"/>
      <point x="307" y="251" type="qcurve" smooth="yes"/>
      <point x="307" y="199"/>
      <point x="254" y="102"/>
      <point x="170" y="24"/>
    </contour>
  </outline>
</glyph>
<glyph name="guarani" format="2">
  <advance width="656"/>
  <unicode hex="20B2"/>
  <outline>
    <contour>
      <point x="300" y="101" type="line" smooth="yes"/>
      <point x="357" y="101"/>
      <point x="449" y="164"/>
      <point x="468" y="236" type="qcurve"/>
      <point x="477" y="278" type="line"/>
      <point x="352" y="278" type="line"/>
      <point x="288" y="101" type="line"/>
    </contour>
    <contour>
      <point x="215" y="133" type="qcurve"/>
      <point x="387" y="596" type="line"/>
      <point x="375" y="597" type="line"/>
      <point x="232" y="580"/>
      <point x="198" y="410" type="qcurve" smooth="yes"/>
      <point x="178" y="312" type="line" smooth="yes"/>
      <point x="171" y="277"/>
      <point x="171" y="248" type="qcurve" smooth="yes"/>
      <point x="171" y="167"/>
    </contour>
    <contour>
      <point x="225" y="-82" type="line"/>
      <point x="131" y="-82" type="line"/>
      <point x="174" y="34" type="line"/>
      <point x="56" y="97"/>
      <point x="56" y="278" type="qcurve" smooth="yes"/>
      <point x="56" y="442"/>
      <point x="230" y="683"/>
      <point x="387" y="694" type="qcurve"/>
      <point x="417" y="693" type="line"/>
      <point x="449" y="780" type="line"/>
      <point x="543" y="780" type="line"/>
      <point x="505" y="675" type="line"/>
      <point x="597" y="634"/>
      <point x="626" y="541" type="qcurve"/>
      <point x="526" y="494" type="line"/>
      <point x="516" y="552"/>
      <point x="464" y="582" type="qcurve"/>
      <point x="389" y="376" type="line"/>
      <point x="609" y="376" type="line"/>
      <point x="584" y="249" type="line"/>
      <point x="552" y="120"/>
      <point x="392" y="4"/>
      <point x="284" y="4" type="qcurve" smooth="yes"/>
      <point x="258" y="4" type="line"/>
    </contour>
  </outline>
</glyph>
<glyph name="tenge" format="2">
  <advance width="588"/>
  <unicode hex="20B8"/>
  <outline>
    <contour>
      <point x="303" y="0" type="line"/>
      <point x="182" y="0" type="line"/>
      <point x="269" y="432" type="line"/>
      <point x="72" y="432" type="line"/>
      <point x="90" y="522" type="line"/>
      <point x="600" y="522" type="line"/>
      <point x="583" y="432" type="line"/>
      <point x="390" y="432" type="line"/>
    </contour>
    <contour>
      <point x="618" y="608" type="line"/>
      <point x="107" y="608" type="line"/>
      <point x="125" y="698" type="line"/>
      <point x="635" y="698" type="line"/>
    </contour>
  </outline>
</glyph>
<glyph name="fourfifths" format="2">
  <advance width="876"/>
  <unicode hex="2158"/>
  <outline>
    <contour>
      <point x="232" y="462" type="line"/>
      <point x="260" y="603" type="line"/>
      <point x="255" y="603" type="line"/>
      <point x="129" y="462" type="line"/>
    </contour>
    <contour>
      <point x="655" y="-6" type="qcurve" smooth="yes"/>
      <point x="553" y="-6"/>
      <point x="521" y="67" type="qcurve"/>
      <point x="586" y="107" type="line"/>
      <point x="600" y="60"/>
      <point x="657" y="60" type="qcurve" smooth="yes"/>
      <point x="694" y="60"/>
      <point x="728" y="101"/>
      <point x="728" y="134" type="qcurve"/>
      <point x="723" y="177"/>
      <point x="679" y="177" type="qcurve" smooth="yes"/>
      <point x="639" y="177"/>
      <point x="616" y="152" type="qcurve"/>
      <point x="548" y="161" type="line"/>
      <point x="608" y="369" type="line"/>
      <point x="844" y="369" type="line"/>
      <point x="830" y="299" type="line"/>
      <point x="653" y="299" type="line"/>
      <point x="620" y="183" type="line"/>
      <point x="624" y="183" type="line"/>
      <point x="655" y="242"/>
      <point x="723" y="242" type="qcurve" smooth="yes"/>
      <point x="763" y="242"/>
      <point x="818" y="190"/>
      <point x="818" y="142" type="qcurve" smooth="yes"/>
      <point x="818" y="81"/>
      <point x="732" y="-6"/>
    </contour>
    <contour>
      <point x="285" y="329" type="line"/>
      <point x="205" y="329" type="line"/>
      <point x="219" y="400" type="line"/>
      <point x="45" y="400" type="line"/>
      <point x="59" y="471" type="line"/>
      <point x="261" y="698" type="line"/>
      <point x="359" y="698" type="line"/>
      <point x="311" y="462" type="line"/>
      <point x="359" y="462" type="line"/>
      <point x="346" y="400" type="line"/>
      <point x="299" y="400" type="line"/>
    </contour>
    <contour>
      <point x="190" y="0" type="line"/>
      <point x="92" y="0" type="line"/>
      <point x="731" y="698" type="line"/>
      <point x="829" y="698" type="line"/>
    </contour>
  </outline>
</glyph>
<glyph name="fiveeighths" format="2">
  <advance width="879"/>
  <unicode hex="215D"/>
  <outline>
    <contour>
      <point x="657" y="56" type="qcurve" smooth="yes"/>
      <point x="685" y="56"/>
      <point x="725" y="86"/>
      <point x="725" y="117" type="qcurve" smooth="yes"/>
      <point x="725" y="159"/>
      <point x="675" y="159" type="qcurve" smooth="yes"/>
      <point x="606" y="159"/>
      <point x="606" y="93" type="qcurve"/>
      <point x="609" y="56"/>
    </contour>
    <contour>
      <point x="690" y="217" type="qcurve" smooth="yes"/>
      <point x="755" y="217"/>
      <point x="755" y="279" type="qcurve"/>
      <point x="752" y="313"/>
      <point x="708" y="313" type="qcurve" smooth="yes"/>
      <point x="646" y="313"/>
      <point x="644" y="258" type="qcurve"/>
      <point x="645" y="229"/>
      <point x="677" y="217"/>
    </contour>
    <contour>
      <point x="649" y="-6" type="qcurve" smooth="yes"/>
      <point x="582" y="-6"/>
      <point x="521" y="45"/>
      <point x="521" y="86" type="qcurve" smooth="yes"/>
      <point x="521" y="167"/>
      <point x="614" y="190" type="qcurve"/>
      <point x="615" y="194" type="line"/>
      <point x="568" y="213"/>
      <point x="568" y="266" type="qcurve" smooth="yes"/>
      <point x="568" y="313"/>
      <point x="648" y="375"/>
      <point x="717" y="375" type="qcurve" smooth="yes"/>
      <point x="778" y="375"/>
      <point x="835" y="326"/>
      <point x="835" y="289" type="qcurve" smooth="yes"/>
      <point x="835" y="219"/>
      <point x="756" y="195" type="qcurve"/>
      <point x="755" y="191" type="line"/>
      <point x="811" y="172"/>
      <point x="811" y="118" type="qcurve" smooth="yes"/>
      <point x="811" y="66"/>
      <point x="720" y="-6"/>
    </contour>
    <contour>
      <point x="192" y="323" type="qcurve" smooth="yes"/>
      <point x="91" y="323"/>
      <point x="58" y="396" type="qcurve"/>
      <point x="122" y="436" type="line"/>
      <point x="136" y="389"/>
      <point x="193" y="389" type="qcurve" smooth="yes"/>
      <point x="232" y="389"/>
      <point x="265" y="431"/>
      <point x="265" y="463" type="qcurve"/>
      <point x="261" y="506"/>
      <point x="215" y="506" type="qcurve" smooth="yes"/>
      <point x="180" y="506"/>
      <point x="153" y="481" type="qcurve"/>
      <point x="85" y="490" type="line"/>
      <point x="144" y="698" type="line"/>
      <point x="381" y="698" type="line"/>
      <point x="366" y="628" type="line"/>
      <point x="190" y="628" type="line"/>
      <point x="156" y="512" type="line"/>
      <point x="161" y="512" type="line"/>
      <point x="192" y="571"/>
      <point x="260" y="571" type="qcurve" smooth="yes"/>
      <point x="299" y="571"/>
      <point x="355" y="519"/>
      <point x="355" y="471" type="qcurve" smooth="yes"/>
      <point x="355" y="410"/>
      <point x="269" y="323"/>
    </contour>
    <contour>
      <point x="182" y="0" type="line"/>
      <point x="83" y="0" type="line"/>
      <point x="722" y="698" type="line"/>
      <point x="820" y="698" type="line"/>
    </contour>
  </outline>
</glyph>
<glyph name="arrowboth" format="2">
  <advance width="869"/>
  <unicode hex="2194"/>
  <outline>
    <contour>
      <point x="573" y="122" type="line"/>
      <point x="505" y="190" type="line"/>
      <point x="548" y="234" type="line" smooth="yes"/>
      <point x="564" y="250"/>
      <point x="578" y="262" type="qcurve" smooth="yes"/>
      <point x="621" y="299" type="line"/>
      <point x="620" y="303" type="line"/>
      <point x="534" y="298" type="line"/>
      <point x="336" y="298" type="line"/>
      <point x="249" y="303" type="line"/>
      <point x="248" y="299" type="line"/>
      <point x="294" y="261" type="line"/>
      <point x="365" y="190" type="line"/>
      <point x="297" y="122" type="line"/>
      <point x="70" y="349" type="line"/>
      <point x="297" y="576" type="line"/>
      <point x="365" y="508" type="line"/>
      <point x="294" y="437" type="line"/>
      <point x="248" y="399" type="line"/>
      <point x="249" y="395" type="line"/>
      <point x="336" y="400" type="line"/>
      <point x="534" y="400" type="line"/>
      <point x="620" y="395" type="line"/>
      <point x="621" y="399" type="line"/>
      <point x="578" y="436" type="line" smooth="yes"/>
      <point x="564" y="448"/>
      <point x="548" y="464" type="qcurve" smooth="yes"/>
      <point x="505" y="508" type="line"/>
      <point x="573" y="576" type="line"/>
      <point x="800" y="349" type="line"/>
    </contour>
  </outline>
</glyph>
<glyph name="arrowSE" format="2">
  <advance width="869"/>
  <unicode hex="2198"/>
  <outline>
    <contour>
      <point x="685" y="88" type="line"/>
      <point x="365" y="88" type="line"/>
      <point x="365" y="185" type="line"/>
      <point x="464" y="185" type="line"/>
      <point x="524" y="180" type="line"/>
      <point x="526" y="183" type="line"/>
      <point x="462" y="240" type="line"/>
      <point x="148" y="555" type="line"/>
      <point x="219" y="627" type="line"/>
      <point x="533" y="312" type="line"/>
      <point x="591" y="248" type="line"/>
      <point x="594" y="249" type="line"/>
      <point x="590" y="310" type="line"/>
      <point x="590" y="410" type="line"/>
      <point x="685" y="410" type="line"/>
    </contour>
  </outline>
</glyph>
<glyph name="arrowSW" format="2">
  <advance width="869"/>
  <unicode hex="2199"/>
  <outline>
    <contour>
      <point x="505" y="88" type="line"/>
      <point x="184" y="88" type="line"/>
      <point x="184" y="410" type="line"/>
      <point x="280" y="410" type="line"/>
      <point x="280" y="310" type="line"/>
      <point x="275" y="249" type="line"/>
      <point x="278" y="248" type="line"/>
      <point x="336" y="312" type="line"/>
      <point x="650" y="627" type="line"/>
      <point x="722" y="555" type="line"/>
      <point x="407" y="240" type="line"/>
      <point x="344" y="183" type="line"/>
      <point x="345" y="180" type="line"/>
      <point x="406" y="185" type="line"/>
      <point x="505" y="185" type="line"/>
    </contour>
  </outline>
</glyph>
<glyph name="arrowclockwiseopencircle" format="2">
  <advance width="869"/>
  <unicode hex="21BB"/>
  <outline>
    <contour>
      <point x="432" y="-12" type="qcurve" smooth="yes"/>
      <point x="342" y="-12"/>
      <point x="191" y="67"/>
      <point x="100" y="208"/>
      <point x="100" y="299" type="qcurve" smooth="yes"/>
      <point x="100" y="386"/>
      <point x="186" y="524"/>
      <point x="252" y="573" type="qcurve"/>
      <point x="287" y="603" type="line"/>
      <point x="286" y="606" type="line"/>
      <point x="223" y="602" type="line"/>
      <point x="127" y="602" type="line"/>
      <point x="127" y="698" type="line"/>
      <point x="447" y="698" type="line"/>
      <point x="447" y="377" type="line"/>
      <point x="352" y="377" type="line"/>
      <point x="352" y="473" type="line"/>
      <point x="356" y="535" type="line"/>
      <point x="353" y="536" type="line"/>
      <point x="325" y="510" type="line"/>
      <point x="291" y="481"/>
      <point x="269" y="457" type="qcurve"/>
      <point x="202" y="388"/>
      <point x="202" y="299" type="qcurve" smooth="yes"/>
      <point x="202" y="202"/>
      <point x="335" y="84"/>
      <point x="432" y="84" type="qcurve" smooth="yes"/>
      <point x="527" y="84"/>
      <point x="667" y="208"/>
      <point x="667" y="308" type="qcurve" smooth="yes"/>
      <point x="667" y="448"/>
      <point x="550" y="529" type="qcurve"/>
      <point x="612" y="601" type="line"/>
      <point x="770" y="485"/>
      <point x="770" y="308" type="qcurve" smooth="yes"/>
      <point x="770" y="230"/>
      <point x="709" y="110"/>
      <point x="610" y="29"/>
      <point x="490" y="-12"/>
    </contour>
  </outline>
</glyph>
<glyph name="Delta" format="2">
  <advance width="663"/>
  <unicode hex="2206"/>
  <outline>
    <contour>
      <point x="461" y="106" type="line"/>
      <point x="401" y="578" type="line"/>
      <point x="392" y="578" type="line"/>
      <point x="148" y="106" type="line"/>
    </contour>
    <contour>
      <point x="561" y="0" type="line"/>
      <point x="-2" y="0" type="line"/>
      <point x="18" y="103" type="line"/>
      <point x="339" y="698" type="line"/>
      <point x="498" y="698" type="line"/>
      <point x="581" y="103" type="line"/>
    </contour>
  </outline>
</glyph>
<glyph name="notequal" format="2">
  <advance width="600"/>
  <unicode hex="2260"/>
  <outline>
    <contour>
      <point x="178" y="50" type="line"/>
      <point x="73" y="50" type="line"/>
      <point x="143" y="147" type="line"/>
      <point x="49" y="147" type="line"/>
      <point x="68" y="244" type="line"/>
      <point x="216" y="244" type="line"/>
      <point x="303" y="368" type="line"/>
      <point x="93" y="368" type="line"/>
      <point x="112" y="465" type="line"/>
      <point x="371" y="465" type="line"/>
      <point x="441" y="562" type="line"/>
      <point x="546" y="562" type="line"/>
      <point x="476" y="465" type="line"/>
      <point x="570" y="465" type="line"/>
      <point x="551" y="368" type="line"/>
      <point x="403" y="368" type="line"/>
      <point x="315" y="244" type="line"/>
      <point x="526" y="244" type="line"/>
      <point x="507" y="147" type="line"/>
      <point x="248" y="147" type="line"/>
    </contour>
  </outline>
</glyph>
<glyph name="greaterequal" format="2">
  <advance width="600"/>
  <unicode hex="2265"/>
  <outline>
    <contour>
      <point x="455" y="0" type="line"/>
      <point x="42" y="0" type="line"/>
      <point x="62" y="97" type="line"/>
      <point x="475" y="97" type="line"/>
    </contour>
    <contour>
      <point x="69" y="136" type="line"/>
      <point x="91" y="246" type="line"/>
      <point x="405" y="365" type="line"/>
      <point x="406" y="372" type="line"/>
      <point x="140" y="494" type="line"/>
      <point x="161" y="598" type="line"/>
      <point x="538" y="414" type="line"/>
      <point x="518" y="314" type="line"/>
    </contour>
  </outline>
</glyph>
<glyph name="ff" format="2">
  <advance width="625"/>
  <unicode hex="FB00"/>
  <outline>
    <contour>
      <point x="-10" y="-200" type="qcurve" smooth="yes"/>
      <point x="-82" y="-200" type="line"/>
      <point x="-63" y="-105" type="line"/>
      <point x="32" y="-105" type="line"/>
      <point x="138" y="426" type="line"/>
      <point x="63" y="426" type="line"/>
      <point x="82" y="522" type="line"/>
      <point x="158" y="522" type="line"/>
      <point x="174" y="604" type="line"/>
      <point x="198" y="740"/>
      <point x="341" y="740" type="qcurve" smooth="yes"/>
      <point x="417" y="740" type="line"/>
      <point x="398" y="645" type="line"/>
      <point x="298" y="645" type="line"/>
      <point x="274" y="522" type="line"/>
      <point x="448" y="522" type="line"/>
      <point x="464" y="604" type="line"/>
      <point x="488" y="740"/>
      <point x="631" y="740" type="qcurve" smooth="yes"/>
      <point x="707" y="740" type="line"/>
      <point x="688" y="645" type="line"/>
      <point x="588" y="645" type="line"/>
      <point x="564" y="522" type="line"/>
      <point x="665" y="522" type="line"/>
      <point x="647" y="426" type="line"/>
      <point x="544" y="426" type="line"/>
      <point x="446" y="-64" type="line" smooth="yes"/>
      <point x="421" y="-200"/>
      <point x="280" y="-200" type="qcurve" smooth="yes"/>
      <point x="208" y="-200" type="line"/>
      <point x="227" y="-105" type="line"/>
      <point x="322" y="-105" type="line"/>
      <point x="428" y="426" type="line"/>
      <point x="254" y="426" type="line"/>
      <point x="156" y="-64" type="line" smooth="yes"/>
      <point x="131" y="-200"/>
    </contour>
  </outline>
</glyph>
<glyph name="ffi" format="2">
  <advance width="893"/>
  <unicode hex="FB03"/>
  <outline>
    <contour>
      <point x="822" y="604" type="qcurve" smooth="yes"/>
      <point x="762" y="604"/>
      <point x="762" y="650" type="qcurve" smooth="yes"/>
      <point x="762" y="662"/>
      <point x="764" y="667" type="qcurve"/>
      <point x="767" y="689"/>
      <point x="777" y="718"/>
      <point x="792" y="730" type="qcurve"/>
      <point x="812" y="745"/>
      <point x="847" y="745" type="qcurve" smooth="yes"/>
      <point x="878" y="745"/>
      <point x="907" y="718"/>
      <point x="907" y="699" type="qcurve"/>
      <point x="902" y="650"/>
      <point x="880" y="624" type="qcurve"/>
      <point x="864" y="604"/>
    </contour>
    <contour>
      <point x="-10" y="-200" type="qcurve" smooth="yes"/>
      <point x="-82" y="-200" type="line"/>
      <point x="-63" y="-105" type="line"/>
      <point x="32" y="-105" type="line"/>
      <point x="138" y="426" type="line"/>
      <point x="63" y="426" type="line"/>
      <point x="82" y="522" type="line"/>
      <point x="158" y="522" type="line"/>
      <point x="174" y="604" type="line"/>
      <point x="198" y="740"/>
      <point x="341" y="740" type="qcurve" smooth="yes"/>
      <point x="417" y="740" type="line"/>
      <point x="398" y="645" type="line"/>
      <point x="298" y="645" type="line"/>
      <point x="274" y="522" type="line"/>
      <point x="449" y="522" type="line"/>
      <point x="465" y="604" type="line"/>
      <point x="489" y="740"/>
      <point x="622" y="740" type="qcurve" smooth="yes"/>
      <point x="704" y="740" type="line"/>
      <point x="684" y="645" type="line"/>
      <point x="589" y="645" type="line"/>
      <point x="564" y="522" type="line"/>
      <point x="862" y="522" type="line"/>
      <point x="777" y="95" type="line"/>
      <point x="841" y="95" type="line"/>
      <point x="822" y="0" type="line"/>
      <point x="749" y="0" type="line" smooth="yes"/>
      <point x="709" y="0"/>
      <point x="658" y="34"/>
      <point x="658" y="73" type="qcurve" smooth="yes"/>
      <point x="658" y="82"/>
      <point x="727" y="426" type="qcurve"/>
      <point x="545" y="426" type="line"/>
      <point x="447" y="-63" type="line" smooth="yes"/>
      <point x="421" y="-200"/>
      <point x="289" y="-200" type="qcurve" smooth="yes"/>
      <point x="209" y="-200" type="line"/>
      <point x="228" y="-105" type="line"/>
      <point x="324" y="-105" type="line"/>
      <point x="430" y="426" type="line"/>
      <point x="254" y="426" type="line"/>
      <point x="156" y="-64" type="line" smooth="yes"/>
      <point x="131" y="-200"/>
    </contour>
  </outline>
</glyph>
<glyph name="five.subs" format="2">
  <advance width="346"/>
  <outline>
    <contour>
      <point x="192" y="464" type="qcurve" smooth="yes"/>
      <point x="91" y="464"/>
      <point x="58" y="537" type="qcurve"/>
      <point x="122" y="577" type="line"/>
      <point x="136" y="530"/>
      <point x="193" y="530" type="qcurve" smooth="yes"/>
      <point x="232" y="530"/>
      <point x="265" y="572"/>
      <point x="265" y="604" type="qcurve"/>
      <point x="261" y="647"/>
      <point x="215" y="647" type="qcurve" smooth="yes"/>
      <point x="180" y="647"/>
      <point x="153" y="622" type="qcurve"/>
      <point x="85" y="631" type="line"/>
      <point x="144" y="839" type="line"/>
      <point x="381" y="839" type="line"/>
      <point x="366" y="769" type="line"/>
      <point x="190" y="769" type="line"/>
      <point x="156" y="653" type="line"/>
      <point x="161" y="653" type="line"/>
      <point x="192" y="712"/>
      <point x="260" y="712" type="qcurve" smooth="yes"/>
      <point x="299" y="712"/>
      <point x="355" y="660"/>
      <point x="355" y="612" type="qcurve" smooth="yes"/>
      <point x="355" y="551"/>
      <point x="269" y="464"/>
    </contour>
  </outline>
</glyph>
<glyph name="four.subs" format="2">
  <advance width="342"/>
  <outline>
    <contour>
      <point x="232" y="603" type="line"/>
      <point x="260" y="744" type="line"/>
      <point x="255" y="744" type="line"/>
      <point x="129" y="603" type="line"/>
    </contour>
    <contour>
      <point x="285" y="470" type="line"/>
      <point x="205" y="470" type="line"/>
      <point x="219" y="541" type="line"/>
      <point x="45" y="541" type="line"/>
      <point x="59" y="612" type="line"/>
      <point x="261" y="839" type="line"/>
      <point x="359" y="839" type="line"/>
      <point x="311" y="603" type="line"/>
      <point x="359" y="603" type="line"/>
      <point x="346" y="541" type="line"/>
      <point x="299" y="541" type="line"/>
    </contour>
  </outline>
</glyph>
<glyph name="seven.subs" format="2">
  <advance width="332"/>
  <outline>
    <contour>
      <point x="186" y="470" type="line"/>
      <point x="95" y="470" type="line"/>
      <point x="289" y="773" type="line"/>
      <point x="92" y="773" type="line"/>
      <point x="105" y="839" type="line"/>
      <point x="387" y="839" type="line"/>
      <point x="373" y="768" type="line"/>
    </contour>
  </outline>
</glyph>
<glyph name="seven.sups" format="2">
  <advance width="332"/>
  <outline>
    <contour>
      <point x="186" y="-388" type="line"/>
      <point x="95" y="-388" type="line"/>
      <point x="289" y="-85" type="line"/>
      <point x="92" y="-85" type="line"/>
      <point x="105" y="-19" type="line"/>
      <point x="387" y="-19" type="line"/>
      <point x="373" y="-90" type="line"/>
    </contour>
  </outline>
</glyph>
<glyph name="three.subs" format="2">
  <advance width="335"/>
  <outline>
    <contour>
      <point x="173" y="464" type="qcurve" smooth="yes"/>
      <point x="66" y="464"/>
      <point x="38" y="536" type="qcurve"/>
      <point x="98" y="578" type="line"/>
      <point x="117" y="530"/>
      <point x="174" y="530" type="qcurve" smooth="yes"/>
      <point x="228" y="530"/>
      <point x="241" y="577" type="qcurve"/>
      <point x="243" y="590" type="line"/>
      <point x="243" y="627"/>
      <point x="188" y="627" type="qcurve" smooth="yes"/>
      <point x="147" y="627" type="line"/>
      <point x="160" y="693" type="line"/>
      <point x="200" y="693" type="line" smooth="yes"/>
      <point x="262" y="693"/>
      <point x="268" y="731" type="qcurve" smooth="yes"/>
      <point x="270" y="746" type="line"/>
      <point x="269" y="760"/>
      <point x="245" y="780"/>
      <point x="222" y="780" type="qcurve" smooth="yes"/>
      <point x="178" y="780"/>
      <point x="139" y="735" type="qcurve"/>
      <point x="93" y="785" type="line"/>
      <point x="119" y="813"/>
      <point x="185" y="845"/>
      <point x="232" y="845" type="qcurve" smooth="yes"/>
      <point x="293" y="845"/>
      <point x="355" y="794"/>
      <point x="355" y="755" type="qcurve" smooth="yes"/>
      <point x="355" y="716"/>
      <point x="307" y="670"/>
      <point x="267" y="662" type="qcurve"/>
      <point x="267" y="660" type="line"/>
      <point x="329" y="646"/>
      <point x="329" y="586" type="qcurve" smooth="yes"/>
      <point x="329" y="534"/>
      <point x="249" y="464"/>
    </contour>
  </outline>
</glyph>
<glyph name="three.sups" format="2">
  <advance width="335"/>
  <outline>
    <contour>
      <point x="173" y="-394" type="qcurve" smooth="yes"/>
      <point x="66" y="-394"/>
      <point x="38" y="-322" type="qcurve"/>
      <point x="98" y="-280" type="line"/>
      <point x="117" y="-328"/>
      <point x="174" y="-328" type="qcurve" smooth="yes"/>
      <point x="228" y="-328"/>
      <point x="241" y="-281" type="qcurve"/>
      <point x="243" y="-268" type="line"/>
      <point x="243" y="-231"/>
      <point x="188" y="-231" type="qcurve" smooth="yes"/>
      <point x="147" y="-231" type="line"/>
      <point x="160" y="-165" type="line"/>
      <point x="200" y="-165" type="line" smooth="yes"/>
      <point x="262" y="-165"/>
      <point x="268" y="-127" type="qcurve" smooth="yes"/>
      <point x="270" y="-112" type="line"/>
      <point x="269" y="-98"/>
      <point x="245" y="-78"/>
      <point x="222" y="-78" type="qcurve" smooth="yes"/>
      <point x="178" y="-78"/>
      <point x="139" y="-123" type="qcurve"/>
      <point x="93" y="-73" type="line"/>
      <point x="119" y="-45"/>
      <point x="185" y="-13"/>
      <point x="232" y="-13" type="qcurve" smooth="yes"/>
      <point x="293" y="-13"/>
      <point x="355" y="-64"/>
      <point x="355" y="-103" type="qcurve" smooth="yes"/>
      <point x="355" y="-142"/>
      <point x="307" y="-188"/>
      <point x="267" y="-196" type="qcurve"/>
      <point x="267" y="-198" type="line"/>
      <point x="329" y="-212"/>
      <point x="329" y="-272" type="qcurve" smooth="yes"/>
      <point x="329" y="-324"/>
      <point x="249" y="-394"/>
    </contour>
  </outline>
</glyph>
<glyph name="two.subs" format="2">
  <advance width="339"/>
  <outline>
    <contour>
      <point x="314" y="470" type="line"/>
      <point x="40" y="470" type="line"/>
      <point x="55" y="546" type="line"/>
      <point x="195" y="640" type="line" smooth="yes"/>
      <point x="236" y="667"/>
      <point x="268" y="707"/>
      <point x="271" y="736" type="qcurve"/>
      <point x="271" y="760"/>
      <point x="248" y="767" type="qcurve"/>
      <point x="237" y="772"/>
      <point x="224" y="772" type="qcurve"/>
      <point x="212" y="771" type="line" smooth="yes"/>
      <point x="172" y="767"/>
      <point x="156" y="723" type="qcurve"/>
      <point x="86" y="751" type="line"/>
      <point x="128" y="845"/>
      <point x="231" y="845" type="qcurve" smooth="yes"/>
      <point x="285" y="845"/>
      <point x="360" y="792"/>
      <point x="360" y="742" type="qcurve" smooth="yes"/>
      <point x="360" y="695"/>
      <point x="321" y="654" type="qcurve" smooth="yes"/>
      <point x="286" y="617"/>
      <point x="224" y="584" type="qcurve"/>
      <point x="153" y="538" type="line"/>
      <point x="327" y="538" type="line"/>
    </contour>
  </outline>
</glyph>
